ISO-10303-21;
HEADER;
FILE_DESCRIPTION(('STEP AP242'),'1');
FILE_NAME('b3wn-6002.stp','2018-11-12T09:37:31',('TraceParts'),('TraceParts S.A.'),'Spatial InterOp 3D',' ',' ');
FILE_SCHEMA(('AP242_MANAGED_MODEL_BASED_3D_ENGINEERING_MIM_LF  {1 0 10303 442 1 1 4}'));
ENDSEC;
DATA;
#1=MECHANICAL_DESIGN_GEOMETRIC_PRESENTATION_REPRESENTATION(' ',(#11,#12,#13,#14,#15,#16,#17,#18,#19,#20,#21,#22,#23,#24,#25,#26,#27,#28,#29,#30,#31,#32,#33,#34,#35,#36,#37,#38,#39,#40,#41,#42,#43,#44,#45,#46,#47,#48,#49,#50,#51,#52,#53,#54,#55,#56,#57,#58,#59,#60,#61,#62,#63,#64,#65,#66,#67,#68,#69,#70,#71,#72,#73,#74,#75,#76,#77),#7);
#2=PRODUCT_DEFINITION_CONTEXT('',#78,'design');
#3=APPLICATION_PROTOCOL_DEFINITION('INTERNATIONAL STANDARD','ap242_managed_model_based_3d_engineering',2014,#78);
#4=PRODUCT_CATEGORY_RELATIONSHIP('NONE','NONE',#79,#80);
#5=SHAPE_DEFINITION_REPRESENTATION(#81,#82);
#6=SHAPE_DEFINITION_REPRESENTATION(#81,#83);
#7= (GEOMETRIC_REPRESENTATION_CONTEXT(3)GLOBAL_UNCERTAINTY_ASSIGNED_CONTEXT((#86))GLOBAL_UNIT_ASSIGNED_CONTEXT((#88,#89,#90))REPRESENTATION_CONTEXT('NONE','WORKSPACE'));
#11=STYLED_ITEM('',(#92),#93);
#12=STYLED_ITEM('',(#94),#95);
#13=STYLED_ITEM('',(#96),#97);
#14=STYLED_ITEM('',(#98),#99);
#15=STYLED_ITEM('',(#100),#101);
#16=STYLED_ITEM('',(#102),#103);
#17=STYLED_ITEM('',(#104),#105);
#18=STYLED_ITEM('',(#106),#107);
#19=STYLED_ITEM('',(#108),#109);
#20=STYLED_ITEM('',(#110),#111);
#21=STYLED_ITEM('',(#112),#113);
#22=STYLED_ITEM('',(#114),#115);
#23=STYLED_ITEM('',(#116),#117);
#24=STYLED_ITEM('',(#118),#119);
#25=STYLED_ITEM('',(#120),#121);
#26=STYLED_ITEM('',(#122),#123);
#27=STYLED_ITEM('',(#124),#125);
#28=STYLED_ITEM('',(#126),#127);
#29=STYLED_ITEM('',(#128),#129);
#30=STYLED_ITEM('',(#130),#131);
#31=STYLED_ITEM('',(#132),#133);
#32=STYLED_ITEM('',(#134),#135);
#33=STYLED_ITEM('',(#136),#137);
#34=STYLED_ITEM('',(#138),#139);
#35=STYLED_ITEM('',(#140),#141);
#36=STYLED_ITEM('',(#142),#143);
#37=STYLED_ITEM('',(#144),#145);
#38=STYLED_ITEM('',(#146),#147);
#39=STYLED_ITEM('',(#148),#149);
#40=STYLED_ITEM('',(#150),#151);
#41=STYLED_ITEM('',(#152),#153);
#42=STYLED_ITEM('',(#154),#155);
#43=STYLED_ITEM('',(#156),#157);
#44=STYLED_ITEM('',(#158),#159);
#45=STYLED_ITEM('',(#160),#161);
#46=STYLED_ITEM('',(#162),#163);
#47=STYLED_ITEM('',(#164),#165);
#48=STYLED_ITEM('',(#166),#167);
#49=STYLED_ITEM('',(#168),#169);
#50=STYLED_ITEM('',(#170),#171);
#51=STYLED_ITEM('',(#172),#173);
#52=STYLED_ITEM('',(#174),#175);
#53=STYLED_ITEM('',(#176),#177);
#54=STYLED_ITEM('',(#178),#179);
#55=STYLED_ITEM('',(#180),#181);
#56=STYLED_ITEM('',(#182),#183);
#57=STYLED_ITEM('',(#184),#185);
#58=STYLED_ITEM('',(#186),#187);
#59=STYLED_ITEM('',(#188),#189);
#60=STYLED_ITEM('',(#190),#191);
#61=STYLED_ITEM('',(#192),#193);
#62=STYLED_ITEM('',(#194),#195);
#63=STYLED_ITEM('',(#196),#197);
#64=STYLED_ITEM('',(#198),#199);
#65=STYLED_ITEM('',(#200),#201);
#66=STYLED_ITEM('',(#202),#203);
#67=STYLED_ITEM('',(#204),#205);
#68=STYLED_ITEM('',(#206),#207);
#69=STYLED_ITEM('',(#208),#209);
#70=STYLED_ITEM('',(#210),#211);
#71=STYLED_ITEM('',(#212),#213);
#72=STYLED_ITEM('',(#214),#215);
#73=STYLED_ITEM('',(#216),#217);
#74=STYLED_ITEM('',(#218),#219);
#75=STYLED_ITEM('',(#220),#221);
#76=STYLED_ITEM('',(#222),#223);
#77=STYLED_ITEM('',(#224),#225);
#78=APPLICATION_CONTEXT('managed model based 3d engineering');
#79=PRODUCT_CATEGORY('part','NONE');
#80=PRODUCT_RELATED_PRODUCT_CATEGORY('detail',' ',(#226));
#81=PRODUCT_DEFINITION_SHAPE('NONE','NONE',#227);
#82=ADVANCED_BREP_SHAPE_REPRESENTATION('b3wn-6002_1',(#101,#228),#7);
#83=ADVANCED_BREP_SHAPE_REPRESENTATION('b3wn-6002_2',(#225,#229),#7);
#86=UNCERTAINTY_MEASURE_WITH_UNIT(LENGTH_MEASURE(1.0E-06),#88,'','');
#88= (CONVERSION_BASED_UNIT('MILLIMETRE',#232)LENGTH_UNIT()NAMED_UNIT(#235));
#89= (NAMED_UNIT(#237)PLANE_ANGLE_UNIT()SI_UNIT($,.RADIAN.));
#90= (NAMED_UNIT(#237)SOLID_ANGLE_UNIT()SI_UNIT($,.STERADIAN.));
#92=PRESENTATION_STYLE_ASSIGNMENT((#243));
#93=ADVANCED_FACE('NONE',(#244),#245,.T.);
#94=PRESENTATION_STYLE_ASSIGNMENT((#246));
#95=ADVANCED_FACE('NONE',(#247),#248,.T.);
#96=PRESENTATION_STYLE_ASSIGNMENT((#249));
#97=ADVANCED_FACE('NONE',(#250),#251,.F.);
#98=PRESENTATION_STYLE_ASSIGNMENT((#252));
#99=ADVANCED_FACE('NONE',(#253),#254,.T.);
#100=PRESENTATION_STYLE_ASSIGNMENT((#255));
#101=MANIFOLD_SOLID_BREP('b3wn-6002_1',#256);
#102=PRESENTATION_STYLE_ASSIGNMENT((#257));
#103=ADVANCED_FACE('NONE',(#258),#259,.T.);
#104=PRESENTATION_STYLE_ASSIGNMENT((#260));
#105=ADVANCED_FACE('NONE',(#261),#262,.T.);
#106=PRESENTATION_STYLE_ASSIGNMENT((#263));
#107=ADVANCED_FACE('NONE',(#264),#265,.T.);
#108=PRESENTATION_STYLE_ASSIGNMENT((#266));
#109=ADVANCED_FACE('NONE',(#267),#268,.T.);
#110=PRESENTATION_STYLE_ASSIGNMENT((#269));
#111=ADVANCED_FACE('NONE',(#270),#271,.F.);
#112=PRESENTATION_STYLE_ASSIGNMENT((#272));
#113=ADVANCED_FACE('NONE',(#273,#274),#275,.F.);
#114=PRESENTATION_STYLE_ASSIGNMENT((#276));
#115=ADVANCED_FACE('NONE',(#277,#278),#279,.T.);
#116=PRESENTATION_STYLE_ASSIGNMENT((#280));
#117=ADVANCED_FACE('NONE',(#281,#282),#283,.T.);
#118=PRESENTATION_STYLE_ASSIGNMENT((#284));
#119=ADVANCED_FACE('NONE',(#285,#286),#287,.F.);
#120=PRESENTATION_STYLE_ASSIGNMENT((#288));
#121=ADVANCED_FACE('NONE',(#289,#290),#291,.F.);
#122=PRESENTATION_STYLE_ASSIGNMENT((#292));
#123=ADVANCED_FACE('NONE',(#293,#294),#295,.F.);
#124=PRESENTATION_STYLE_ASSIGNMENT((#296));
#125=ADVANCED_FACE('NONE',(#297),#298,.T.);
#126=PRESENTATION_STYLE_ASSIGNMENT((#299));
#127=ADVANCED_FACE('NONE',(#300),#301,.T.);
#128=PRESENTATION_STYLE_ASSIGNMENT((#302));
#129=ADVANCED_FACE('NONE',(#303),#304,.T.);
#130=PRESENTATION_STYLE_ASSIGNMENT((#305));
#131=ADVANCED_FACE('NONE',(#306),#307,.F.);
#132=PRESENTATION_STYLE_ASSIGNMENT((#308));
#133=ADVANCED_FACE('NONE',(#309),#310,.F.);
#134=PRESENTATION_STYLE_ASSIGNMENT((#311));
#135=ADVANCED_FACE('NONE',(#312),#313,.F.);
#136=PRESENTATION_STYLE_ASSIGNMENT((#314));
#137=ADVANCED_FACE('NONE',(#315),#316,.F.);
#138=PRESENTATION_STYLE_ASSIGNMENT((#317));
#139=ADVANCED_FACE('NONE',(#318),#319,.F.);
#140=PRESENTATION_STYLE_ASSIGNMENT((#320));
#141=ADVANCED_FACE('NONE',(#321),#322,.T.);
#142=PRESENTATION_STYLE_ASSIGNMENT((#323));
#143=ADVANCED_FACE('NONE',(#324),#325,.T.);
#144=PRESENTATION_STYLE_ASSIGNMENT((#326));
#145=ADVANCED_FACE('NONE',(#327),#328,.T.);
#146=PRESENTATION_STYLE_ASSIGNMENT((#329));
#147=ADVANCED_FACE('NONE',(#330),#331,.T.);
#148=PRESENTATION_STYLE_ASSIGNMENT((#332));
#149=ADVANCED_FACE('NONE',(#333),#334,.T.);
#150=PRESENTATION_STYLE_ASSIGNMENT((#335));
#151=ADVANCED_FACE('NONE',(#336,#337),#338,.T.);
#152=PRESENTATION_STYLE_ASSIGNMENT((#339));
#153=ADVANCED_FACE('NONE',(#340),#341,.F.);
#154=PRESENTATION_STYLE_ASSIGNMENT((#342));
#155=ADVANCED_FACE('NONE',(#343),#344,.F.);
#156=PRESENTATION_STYLE_ASSIGNMENT((#345));
#157=ADVANCED_FACE('NONE',(#346),#347,.F.);
#158=PRESENTATION_STYLE_ASSIGNMENT((#348));
#159=ADVANCED_FACE('NONE',(#349),#350,.F.);
#160=PRESENTATION_STYLE_ASSIGNMENT((#351));
#161=ADVANCED_FACE('NONE',(#352),#353,.F.);
#162=PRESENTATION_STYLE_ASSIGNMENT((#354));
#163=ADVANCED_FACE('NONE',(#355),#356,.F.);
#164=PRESENTATION_STYLE_ASSIGNMENT((#357));
#165=ADVANCED_FACE('NONE',(#358),#359,.F.);
#166=PRESENTATION_STYLE_ASSIGNMENT((#360));
#167=ADVANCED_FACE('NONE',(#361),#362,.F.);
#168=PRESENTATION_STYLE_ASSIGNMENT((#363));
#169=ADVANCED_FACE('NONE',(#364),#365,.F.);
#170=PRESENTATION_STYLE_ASSIGNMENT((#366));
#171=ADVANCED_FACE('NONE',(#367),#368,.F.);
#172=PRESENTATION_STYLE_ASSIGNMENT((#369));
#173=ADVANCED_FACE('NONE',(#370),#371,.F.);
#174=PRESENTATION_STYLE_ASSIGNMENT((#372));
#175=ADVANCED_FACE('NONE',(#373),#374,.F.);
#176=PRESENTATION_STYLE_ASSIGNMENT((#375));
#177=ADVANCED_FACE('NONE',(#376),#377,.F.);
#178=PRESENTATION_STYLE_ASSIGNMENT((#378));
#179=ADVANCED_FACE('NONE',(#379),#380,.T.);
#180=PRESENTATION_STYLE_ASSIGNMENT((#381));
#181=ADVANCED_FACE('NONE',(#382),#383,.F.);
#182=PRESENTATION_STYLE_ASSIGNMENT((#384));
#183=ADVANCED_FACE('NONE',(#385),#386,.T.);
#184=PRESENTATION_STYLE_ASSIGNMENT((#387));
#185=ADVANCED_FACE('NONE',(#388),#389,.F.);
#186=PRESENTATION_STYLE_ASSIGNMENT((#390));
#187=ADVANCED_FACE('NONE',(#391),#392,.F.);
#188=PRESENTATION_STYLE_ASSIGNMENT((#393));
#189=ADVANCED_FACE('NONE',(#394),#395,.F.);
#190=PRESENTATION_STYLE_ASSIGNMENT((#396));
#191=ADVANCED_FACE('NONE',(#397),#398,.F.);
#192=PRESENTATION_STYLE_ASSIGNMENT((#399));
#193=ADVANCED_FACE('NONE',(#400),#401,.F.);
#194=PRESENTATION_STYLE_ASSIGNMENT((#402));
#195=ADVANCED_FACE('NONE',(#403),#404,.F.);
#196=PRESENTATION_STYLE_ASSIGNMENT((#405));
#197=ADVANCED_FACE('NONE',(#406),#407,.F.);
#198=PRESENTATION_STYLE_ASSIGNMENT((#408));
#199=ADVANCED_FACE('NONE',(#409),#410,.F.);
#200=PRESENTATION_STYLE_ASSIGNMENT((#411));
#201=ADVANCED_FACE('NONE',(#412),#413,.F.);
#202=PRESENTATION_STYLE_ASSIGNMENT((#414));
#203=ADVANCED_FACE('NONE',(#415),#416,.F.);
#204=PRESENTATION_STYLE_ASSIGNMENT((#417));
#205=ADVANCED_FACE('NONE',(#418),#419,.F.);
#206=PRESENTATION_STYLE_ASSIGNMENT((#420));
#207=ADVANCED_FACE('NONE',(#421),#422,.F.);
#208=PRESENTATION_STYLE_ASSIGNMENT((#423));
#209=ADVANCED_FACE('NONE',(#424),#425,.T.);
#210=PRESENTATION_STYLE_ASSIGNMENT((#426));
#211=ADVANCED_FACE('NONE',(#427),#428,.T.);
#212=PRESENTATION_STYLE_ASSIGNMENT((#429));
#213=ADVANCED_FACE('NONE',(#430),#431,.T.);
#214=PRESENTATION_STYLE_ASSIGNMENT((#432));
#215=ADVANCED_FACE('NONE',(#433),#434,.T.);
#216=PRESENTATION_STYLE_ASSIGNMENT((#435));
#217=ADVANCED_FACE('NONE',(#436),#437,.T.);
#218=PRESENTATION_STYLE_ASSIGNMENT((#438));
#219=ADVANCED_FACE('NONE',(#439),#440,.T.);
#220=PRESENTATION_STYLE_ASSIGNMENT((#441));
#221=ADVANCED_FACE('NONE',(#442),#443,.T.);
#222=PRESENTATION_STYLE_ASSIGNMENT((#444));
#223=ADVANCED_FACE('NONE',(#445),#446,.T.);
#224=PRESENTATION_STYLE_ASSIGNMENT((#447));
#225=MANIFOLD_SOLID_BREP('b3wn-6002_2',#448);
#226=PRODUCT('b3wn-6002_1','','PART--DESC',(#449));
#227=PRODUCT_DEFINITION('','NONE',#450,#2);
#228=AXIS2_PLACEMENT_3D('',#451,#452,#453);
#229=AXIS2_PLACEMENT_3D('',#454,#455,#456);
#232=LENGTH_MEASURE_WITH_UNIT(LENGTH_MEASURE(1.0),#457);
#235=DIMENSIONAL_EXPONENTS(1.0,0.0,0.0,0.0,0.0,0.0,0.0);
#237=DIMENSIONAL_EXPONENTS(0.0,0.0,0.0,0.0,0.0,0.0,0.0);
#243=SURFACE_STYLE_USAGE(.BOTH.,#458);
#244=FACE_OUTER_BOUND('',#459,.T.);
#245=CYLINDRICAL_SURFACE('',#460,1.9);
#246=SURFACE_STYLE_USAGE(.BOTH.,#461);
#247=FACE_OUTER_BOUND('',#462,.T.);
#248=CYLINDRICAL_SURFACE('',#463,1.9);
#249=SURFACE_STYLE_USAGE(.BOTH.,#464);
#250=FACE_OUTER_BOUND('',#465,.T.);
#251=PLANE('',#466);
#252=SURFACE_STYLE_USAGE(.BOTH.,#467);
#253=FACE_OUTER_BOUND('',#468,.T.);
#254=PLANE('',#469);
#255=SURFACE_STYLE_USAGE(.BOTH.,#470);
#256=CLOSED_SHELL('',(#93,#95,#97,#99));
#257=SURFACE_STYLE_USAGE(.BOTH.,#471);
#258=FACE_OUTER_BOUND('',#472,.T.);
#259=CYLINDRICAL_SURFACE('',#473,0.5);
#260=SURFACE_STYLE_USAGE(.BOTH.,#474);
#261=FACE_OUTER_BOUND('',#475,.T.);
#262=CYLINDRICAL_SURFACE('',#476,0.5);
#263=SURFACE_STYLE_USAGE(.BOTH.,#477);
#264=FACE_OUTER_BOUND('',#478,.T.);
#265=CYLINDRICAL_SURFACE('',#479,0.5);
#266=SURFACE_STYLE_USAGE(.BOTH.,#480);
#267=FACE_OUTER_BOUND('',#481,.T.);
#268=CYLINDRICAL_SURFACE('',#482,0.5);
#269=SURFACE_STYLE_USAGE(.BOTH.,#483);
#270=FACE_OUTER_BOUND('',#484,.T.);
#271=CYLINDRICAL_SURFACE('',#485,1.9);
#272=SURFACE_STYLE_USAGE(.BOTH.,#486);
#273=FACE_OUTER_BOUND('',#487,.T.);
#274=FACE_BOUND('',#488,.T.);
#275=PLANE('',#489);
#276=SURFACE_STYLE_USAGE(.BOTH.,#490);
#277=FACE_OUTER_BOUND('',#491,.T.);
#278=FACE_BOUND('',#492,.T.);
#279=PLANE('',#493);
#280=SURFACE_STYLE_USAGE(.BOTH.,#494);
#281=FACE_OUTER_BOUND('',#495,.T.);
#282=FACE_BOUND('',#496,.T.);
#283=PLANE('',#497);
#284=SURFACE_STYLE_USAGE(.BOTH.,#498);
#285=FACE_OUTER_BOUND('',#499,.T.);
#286=FACE_BOUND('',#500,.T.);
#287=PLANE('',#501);
#288=SURFACE_STYLE_USAGE(.BOTH.,#502);
#289=FACE_OUTER_BOUND('',#503,.T.);
#290=FACE_BOUND('',#504,.T.);
#291=PLANE('',#505);
#292=SURFACE_STYLE_USAGE(.BOTH.,#506);
#293=FACE_OUTER_BOUND('',#507,.T.);
#294=FACE_BOUND('',#508,.T.);
#295=PLANE('',#509);
#296=SURFACE_STYLE_USAGE(.BOTH.,#510);
#297=FACE_OUTER_BOUND('',#511,.T.);
#298=PLANE('',#512);
#299=SURFACE_STYLE_USAGE(.BOTH.,#513);
#300=FACE_OUTER_BOUND('',#514,.T.);
#301=PLANE('',#515);
#302=SURFACE_STYLE_USAGE(.BOTH.,#516);
#303=FACE_OUTER_BOUND('',#517,.T.);
#304=PLANE('',#518);
#305=SURFACE_STYLE_USAGE(.BOTH.,#519);
#306=FACE_OUTER_BOUND('',#520,.T.);
#307=PLANE('',#521);
#308=SURFACE_STYLE_USAGE(.BOTH.,#522);
#309=FACE_OUTER_BOUND('',#523,.T.);
#310=PLANE('',#524);
#311=SURFACE_STYLE_USAGE(.BOTH.,#525);
#312=FACE_OUTER_BOUND('',#526,.T.);
#313=PLANE('',#527);
#314=SURFACE_STYLE_USAGE(.BOTH.,#528);
#315=FACE_OUTER_BOUND('',#529,.T.);
#316=PLANE('',#530);
#317=SURFACE_STYLE_USAGE(.BOTH.,#531);
#318=FACE_OUTER_BOUND('',#532,.T.);
#319=PLANE('',#533);
#320=SURFACE_STYLE_USAGE(.BOTH.,#534);
#321=FACE_OUTER_BOUND('',#535,.T.);
#322=PLANE('',#536);
#323=SURFACE_STYLE_USAGE(.BOTH.,#537);
#324=FACE_OUTER_BOUND('',#538,.T.);
#325=PLANE('',#539);
#326=SURFACE_STYLE_USAGE(.BOTH.,#540);
#327=FACE_OUTER_BOUND('',#541,.T.);
#328=PLANE('',#542);
#329=SURFACE_STYLE_USAGE(.BOTH.,#543);
#330=FACE_OUTER_BOUND('',#544,.T.);
#331=PLANE('',#545);
#332=SURFACE_STYLE_USAGE(.BOTH.,#546);
#333=FACE_OUTER_BOUND('',#547,.T.);
#334=PLANE('',#548);
#335=SURFACE_STYLE_USAGE(.BOTH.,#549);
#336=FACE_OUTER_BOUND('',#550,.T.);
#337=FACE_BOUND('',#551,.T.);
#338=PLANE('',#552);
#339=SURFACE_STYLE_USAGE(.BOTH.,#553);
#340=FACE_OUTER_BOUND('',#554,.T.);
#341=PLANE('',#555);
#342=SURFACE_STYLE_USAGE(.BOTH.,#556);
#343=FACE_OUTER_BOUND('',#557,.T.);
#344=PLANE('',#558);
#345=SURFACE_STYLE_USAGE(.BOTH.,#559);
#346=FACE_OUTER_BOUND('',#560,.T.);
#347=CYLINDRICAL_SURFACE('',#561,0.8);
#348=SURFACE_STYLE_USAGE(.BOTH.,#562);
#349=FACE_OUTER_BOUND('',#563,.T.);
#350=PLANE('',#564);
#351=SURFACE_STYLE_USAGE(.BOTH.,#565);
#352=FACE_OUTER_BOUND('',#566,.T.);
#353=CYLINDRICAL_SURFACE('',#567,0.8);
#354=SURFACE_STYLE_USAGE(.BOTH.,#568);
#355=FACE_OUTER_BOUND('',#569,.T.);
#356=PLANE('',#570);
#357=SURFACE_STYLE_USAGE(.BOTH.,#571);
#358=FACE_OUTER_BOUND('',#572,.T.);
#359=PLANE('',#573);
#360=SURFACE_STYLE_USAGE(.BOTH.,#574);
#361=FACE_OUTER_BOUND('',#575,.T.);
#362=CYLINDRICAL_SURFACE('',#576,0.8);
#363=SURFACE_STYLE_USAGE(.BOTH.,#577);
#364=FACE_OUTER_BOUND('',#578,.T.);
#365=PLANE('',#579);
#366=SURFACE_STYLE_USAGE(.BOTH.,#580);
#367=FACE_OUTER_BOUND('',#581,.T.);
#368=PLANE('',#582);
#369=SURFACE_STYLE_USAGE(.BOTH.,#583);
#370=FACE_OUTER_BOUND('',#584,.T.);
#371=CYLINDRICAL_SURFACE('',#585,0.8);
#372=SURFACE_STYLE_USAGE(.BOTH.,#586);
#373=FACE_OUTER_BOUND('',#587,.T.);
#374=PLANE('',#588);
#375=SURFACE_STYLE_USAGE(.BOTH.,#589);
#376=FACE_OUTER_BOUND('',#590,.T.);
#377=PLANE('',#591);
#378=SURFACE_STYLE_USAGE(.BOTH.,#592);
#379=FACE_OUTER_BOUND('',#593,.T.);
#380=PLANE('',#594);
#381=SURFACE_STYLE_USAGE(.BOTH.,#595);
#382=FACE_OUTER_BOUND('',#596,.T.);
#383=CYLINDRICAL_SURFACE('',#597,1.9);
#384=SURFACE_STYLE_USAGE(.BOTH.,#598);
#385=FACE_OUTER_BOUND('',#599,.T.);
#386=PLANE('',#600);
#387=SURFACE_STYLE_USAGE(.BOTH.,#601);
#388=FACE_OUTER_BOUND('',#602,.T.);
#389=PLANE('',#603);
#390=SURFACE_STYLE_USAGE(.BOTH.,#604);
#391=FACE_OUTER_BOUND('',#605,.T.);
#392=PLANE('',#606);
#393=SURFACE_STYLE_USAGE(.BOTH.,#607);
#394=FACE_OUTER_BOUND('',#608,.T.);
#395=PLANE('',#609);
#396=SURFACE_STYLE_USAGE(.BOTH.,#610);
#397=FACE_OUTER_BOUND('',#611,.T.);
#398=PLANE('',#612);
#399=SURFACE_STYLE_USAGE(.BOTH.,#613);
#400=FACE_OUTER_BOUND('',#614,.T.);
#401=PLANE('',#615);
#402=SURFACE_STYLE_USAGE(.BOTH.,#616);
#403=FACE_OUTER_BOUND('',#617,.T.);
#404=PLANE('',#618);
#405=SURFACE_STYLE_USAGE(.BOTH.,#619);
#406=FACE_OUTER_BOUND('',#620,.T.);
#407=PLANE('',#621);
#408=SURFACE_STYLE_USAGE(.BOTH.,#622);
#409=FACE_OUTER_BOUND('',#623,.T.);
#410=PLANE('',#624);
#411=SURFACE_STYLE_USAGE(.BOTH.,#625);
#412=FACE_OUTER_BOUND('',#626,.T.);
#413=PLANE('',#627);
#414=SURFACE_STYLE_USAGE(.BOTH.,#628);
#415=FACE_OUTER_BOUND('',#629,.T.);
#416=PLANE('',#630);
#417=SURFACE_STYLE_USAGE(.BOTH.,#631);
#418=FACE_OUTER_BOUND('',#632,.T.);
#419=PLANE('',#633);
#420=SURFACE_STYLE_USAGE(.BOTH.,#634);
#421=FACE_OUTER_BOUND('',#635,.T.);
#422=PLANE('',#636);
#423=SURFACE_STYLE_USAGE(.BOTH.,#637);
#424=FACE_OUTER_BOUND('',#638,.T.);
#425=CYLINDRICAL_SURFACE('',#639,0.5);
#426=SURFACE_STYLE_USAGE(.BOTH.,#640);
#427=FACE_OUTER_BOUND('',#641,.T.);
#428=PLANE('',#642);
#429=SURFACE_STYLE_USAGE(.BOTH.,#643);
#430=FACE_OUTER_BOUND('',#644,.T.);
#431=CYLINDRICAL_SURFACE('',#645,0.5);
#432=SURFACE_STYLE_USAGE(.BOTH.,#646);
#433=FACE_OUTER_BOUND('',#647,.T.);
#434=PLANE('',#648);
#435=SURFACE_STYLE_USAGE(.BOTH.,#649);
#436=FACE_OUTER_BOUND('',#650,.T.);
#437=CYLINDRICAL_SURFACE('',#651,0.5);
#438=SURFACE_STYLE_USAGE(.BOTH.,#652);
#439=FACE_OUTER_BOUND('',#653,.T.);
#440=PLANE('',#654);
#441=SURFACE_STYLE_USAGE(.BOTH.,#655);
#442=FACE_OUTER_BOUND('',#656,.T.);
#443=CYLINDRICAL_SURFACE('',#657,0.5);
#444=SURFACE_STYLE_USAGE(.BOTH.,#658);
#445=FACE_OUTER_BOUND('',#659,.T.);
#446=PLANE('',#660);
#447=SURFACE_STYLE_USAGE(.BOTH.,#661);
#448=CLOSED_SHELL('',(#103,#105,#107,#109,#111,#113,#115,#117,#119,#121,#123,#125,#127,#129,#131,#133,#135,#137,#139,#141,#143,#145,#147,#149,#151,#153,#155,#157,#159,#161,#163,#165,#167,#169,#171,#173,#175,#177,#179,#181,#183,#185,#187,#189,#191,#193,#195,#197,#199,#201,#203,#205,#207,#209,#211,#213,#215,#217,#219,#221,#223));
#449=PRODUCT_CONTEXT('',#78,'mechanical');
#450=PRODUCT_DEFINITION_FORMATION_WITH_SPECIFIED_SOURCE(' ','NONE',#226,.NOT_KNOWN.);
#451=CARTESIAN_POINT('',(0.0,0.0,0.0));
#452=DIRECTION('',(0.0,0.0,1.0));
#453=DIRECTION('',(1.0,0.0,0.0));
#454=CARTESIAN_POINT('',(0.0,0.0,0.0));
#455=DIRECTION('',(0.0,0.0,1.0));
#456=DIRECTION('',(1.0,0.0,0.0));
#457= (NAMED_UNIT(#235)LENGTH_UNIT()SI_UNIT(.MILLI.,.METRE.));
#458=SURFACE_SIDE_STYLE('',(#663));
#459=EDGE_LOOP('',(#664,#665,#666,#667));
#460=AXIS2_PLACEMENT_3D('',#668,#669,#670);
#461=SURFACE_SIDE_STYLE('',(#671));
#462=EDGE_LOOP('',(#672,#673,#674,#675));
#463=AXIS2_PLACEMENT_3D('',#676,#677,#678);
#464=SURFACE_SIDE_STYLE('',(#679));
#465=EDGE_LOOP('',(#680,#681));
#466=AXIS2_PLACEMENT_3D('',#682,#683,#684);
#467=SURFACE_SIDE_STYLE('',(#685));
#468=EDGE_LOOP('',(#686,#687));
#469=AXIS2_PLACEMENT_3D('',#688,#689,#690);
#470=SURFACE_SIDE_STYLE('',(#691));
#471=SURFACE_SIDE_STYLE('',(#692));
#472=EDGE_LOOP('',(#693,#694,#695,#696));
#473=AXIS2_PLACEMENT_3D('',#697,#698,#699);
#474=SURFACE_SIDE_STYLE('',(#700));
#475=EDGE_LOOP('',(#701,#702,#703,#704));
#476=AXIS2_PLACEMENT_3D('',#705,#706,#707);
#477=SURFACE_SIDE_STYLE('',(#708));
#478=EDGE_LOOP('',(#709,#710,#711,#712));
#479=AXIS2_PLACEMENT_3D('',#713,#714,#715);
#480=SURFACE_SIDE_STYLE('',(#716));
#481=EDGE_LOOP('',(#717,#718,#719,#720));
#482=AXIS2_PLACEMENT_3D('',#721,#722,#723);
#483=SURFACE_SIDE_STYLE('',(#724));
#484=EDGE_LOOP('',(#725,#726,#727,#728));
#485=AXIS2_PLACEMENT_3D('',#729,#730,#731);
#486=SURFACE_SIDE_STYLE('',(#732));
#487=EDGE_LOOP('',(#733,#734,#735,#736,#737));
#488=EDGE_LOOP('',(#738,#739));
#489=AXIS2_PLACEMENT_3D('',#740,#741,#742);
#490=SURFACE_SIDE_STYLE('',(#743));
#491=EDGE_LOOP('',(#744,#745,#746,#747,#748));
#492=EDGE_LOOP('',(#749,#750));
#493=AXIS2_PLACEMENT_3D('',#751,#752,#753);
#494=SURFACE_SIDE_STYLE('',(#754));
#495=EDGE_LOOP('',(#755,#756,#757,#758,#759));
#496=EDGE_LOOP('',(#760,#761));
#497=AXIS2_PLACEMENT_3D('',#762,#763,#764);
#498=SURFACE_SIDE_STYLE('',(#765));
#499=EDGE_LOOP('',(#766,#767,#768,#769,#770));
#500=EDGE_LOOP('',(#771,#772));
#501=AXIS2_PLACEMENT_3D('',#773,#774,#775);
#502=SURFACE_SIDE_STYLE('',(#776));
#503=EDGE_LOOP('',(#777,#778,#779,#780));
#504=EDGE_LOOP('',(#781,#782,#783,#784));
#505=AXIS2_PLACEMENT_3D('',#785,#786,#787);
#506=SURFACE_SIDE_STYLE('',(#788));
#507=EDGE_LOOP('',(#789,#790,#791,#792));
#508=EDGE_LOOP('',(#793,#794,#795,#796));
#509=AXIS2_PLACEMENT_3D('',#797,#798,#799);
#510=SURFACE_SIDE_STYLE('',(#800));
#511=EDGE_LOOP('',(#801,#802,#803,#804));
#512=AXIS2_PLACEMENT_3D('',#805,#806,#807);
#513=SURFACE_SIDE_STYLE('',(#808));
#514=EDGE_LOOP('',(#809,#810,#811,#812));
#515=AXIS2_PLACEMENT_3D('',#813,#814,#815);
#516=SURFACE_SIDE_STYLE('',(#816));
#517=EDGE_LOOP('',(#817,#818,#819,#820));
#518=AXIS2_PLACEMENT_3D('',#821,#822,#823);
#519=SURFACE_SIDE_STYLE('',(#824));
#520=EDGE_LOOP('',(#825,#826,#827,#828,#829,#830,#831,#832,#833,#834));
#521=AXIS2_PLACEMENT_3D('',#835,#836,#837);
#522=SURFACE_SIDE_STYLE('',(#838));
#523=EDGE_LOOP('',(#839,#840,#841,#842,#843,#844,#845,#846,#847,#848,#849,#850));
#524=AXIS2_PLACEMENT_3D('',#851,#852,#853);
#525=SURFACE_SIDE_STYLE('',(#854));
#526=EDGE_LOOP('',(#855,#856,#857,#858,#859,#860,#861,#862,#863,#864));
#527=AXIS2_PLACEMENT_3D('',#865,#866,#867);
#528=SURFACE_SIDE_STYLE('',(#868));
#529=EDGE_LOOP('',(#869,#870,#871,#872,#873,#874,#875,#876));
#530=AXIS2_PLACEMENT_3D('',#877,#878,#879);
#531=SURFACE_SIDE_STYLE('',(#880));
#532=EDGE_LOOP('',(#881,#882,#883,#884,#885,#886,#887,#888));
#533=AXIS2_PLACEMENT_3D('',#889,#890,#891);
#534=SURFACE_SIDE_STYLE('',(#892));
#535=EDGE_LOOP('',(#893,#894,#895,#896));
#536=AXIS2_PLACEMENT_3D('',#897,#898,#899);
#537=SURFACE_SIDE_STYLE('',(#900));
#538=EDGE_LOOP('',(#901,#902,#903,#904));
#539=AXIS2_PLACEMENT_3D('',#905,#906,#907);
#540=SURFACE_SIDE_STYLE('',(#908));
#541=EDGE_LOOP('',(#909,#910,#911,#912));
#542=AXIS2_PLACEMENT_3D('',#913,#914,#915);
#543=SURFACE_SIDE_STYLE('',(#916));
#544=EDGE_LOOP('',(#917,#918,#919,#920));
#545=AXIS2_PLACEMENT_3D('',#921,#922,#923);
#546=SURFACE_SIDE_STYLE('',(#924));
#547=EDGE_LOOP('',(#925,#926,#927,#928));
#548=AXIS2_PLACEMENT_3D('',#929,#930,#931);
#549=SURFACE_SIDE_STYLE('',(#932));
#550=EDGE_LOOP('',(#933,#934,#935,#936,#937,#938,#939,#940));
#551=EDGE_LOOP('',(#941,#942));
#552=AXIS2_PLACEMENT_3D('',#943,#944,#945);
#553=SURFACE_SIDE_STYLE('',(#946));
#554=EDGE_LOOP('',(#947,#948,#949,#950));
#555=AXIS2_PLACEMENT_3D('',#951,#952,#953);
#556=SURFACE_SIDE_STYLE('',(#954));
#557=EDGE_LOOP('',(#955,#956,#957,#958));
#558=AXIS2_PLACEMENT_3D('',#959,#960,#961);
#559=SURFACE_SIDE_STYLE('',(#962));
#560=EDGE_LOOP('',(#963,#964,#965,#966,#967,#968));
#561=AXIS2_PLACEMENT_3D('',#969,#970,#971);
#562=SURFACE_SIDE_STYLE('',(#972));
#563=EDGE_LOOP('',(#973,#974,#975,#976));
#564=AXIS2_PLACEMENT_3D('',#977,#978,#979);
#565=SURFACE_SIDE_STYLE('',(#980));
#566=EDGE_LOOP('',(#981,#982,#983,#984,#985,#986));
#567=AXIS2_PLACEMENT_3D('',#987,#988,#989);
#568=SURFACE_SIDE_STYLE('',(#990));
#569=EDGE_LOOP('',(#991,#992,#993,#994));
#570=AXIS2_PLACEMENT_3D('',#995,#996,#997);
#571=SURFACE_SIDE_STYLE('',(#998));
#572=EDGE_LOOP('',(#999,#1000,#1001,#1002));
#573=AXIS2_PLACEMENT_3D('',#1003,#1004,#1005);
#574=SURFACE_SIDE_STYLE('',(#1006));
#575=EDGE_LOOP('',(#1007,#1008,#1009,#1010,#1011,#1012));
#576=AXIS2_PLACEMENT_3D('',#1013,#1014,#1015);
#577=SURFACE_SIDE_STYLE('',(#1016));
#578=EDGE_LOOP('',(#1017,#1018,#1019,#1020));
#579=AXIS2_PLACEMENT_3D('',#1021,#1022,#1023);
#580=SURFACE_SIDE_STYLE('',(#1024));
#581=EDGE_LOOP('',(#1025,#1026,#1027,#1028));
#582=AXIS2_PLACEMENT_3D('',#1029,#1030,#1031);
#583=SURFACE_SIDE_STYLE('',(#1032));
#584=EDGE_LOOP('',(#1033,#1034,#1035,#1036,#1037,#1038));
#585=AXIS2_PLACEMENT_3D('',#1039,#1040,#1041);
#586=SURFACE_SIDE_STYLE('',(#1042));
#587=EDGE_LOOP('',(#1043,#1044,#1045,#1046));
#588=AXIS2_PLACEMENT_3D('',#1047,#1048,#1049);
#589=SURFACE_SIDE_STYLE('',(#1050));
#590=EDGE_LOOP('',(#1051,#1052,#1053,#1054));
#591=AXIS2_PLACEMENT_3D('',#1055,#1056,#1057);
#592=SURFACE_SIDE_STYLE('',(#1058));
#593=EDGE_LOOP('',(#1059,#1060,#1061,#1062));
#594=AXIS2_PLACEMENT_3D('',#1063,#1064,#1065);
#595=SURFACE_SIDE_STYLE('',(#1066));
#596=EDGE_LOOP('',(#1067,#1068,#1069,#1070));
#597=AXIS2_PLACEMENT_3D('',#1071,#1072,#1073);
#598=SURFACE_SIDE_STYLE('',(#1074));
#599=EDGE_LOOP('',(#1075,#1076));
#600=AXIS2_PLACEMENT_3D('',#1077,#1078,#1079);
#601=SURFACE_SIDE_STYLE('',(#1080));
#602=EDGE_LOOP('',(#1081,#1082,#1083,#1084));
#603=AXIS2_PLACEMENT_3D('',#1085,#1086,#1087);
#604=SURFACE_SIDE_STYLE('',(#1088));
#605=EDGE_LOOP('',(#1089,#1090,#1091,#1092));
#606=AXIS2_PLACEMENT_3D('',#1093,#1094,#1095);
#607=SURFACE_SIDE_STYLE('',(#1096));
#608=EDGE_LOOP('',(#1097,#1098,#1099,#1100));
#609=AXIS2_PLACEMENT_3D('',#1101,#1102,#1103);
#610=SURFACE_SIDE_STYLE('',(#1104));
#611=EDGE_LOOP('',(#1105,#1106,#1107,#1108));
#612=AXIS2_PLACEMENT_3D('',#1109,#1110,#1111);
#613=SURFACE_SIDE_STYLE('',(#1112));
#614=EDGE_LOOP('',(#1113,#1114,#1115,#1116));
#615=AXIS2_PLACEMENT_3D('',#1117,#1118,#1119);
#616=SURFACE_SIDE_STYLE('',(#1120));
#617=EDGE_LOOP('',(#1121,#1122,#1123,#1124));
#618=AXIS2_PLACEMENT_3D('',#1125,#1126,#1127);
#619=SURFACE_SIDE_STYLE('',(#1128));
#620=EDGE_LOOP('',(#1129,#1130,#1131,#1132));
#621=AXIS2_PLACEMENT_3D('',#1133,#1134,#1135);
#622=SURFACE_SIDE_STYLE('',(#1136));
#623=EDGE_LOOP('',(#1137,#1138,#1139,#1140));
#624=AXIS2_PLACEMENT_3D('',#1141,#1142,#1143);
#625=SURFACE_SIDE_STYLE('',(#1144));
#626=EDGE_LOOP('',(#1145,#1146,#1147,#1148));
#627=AXIS2_PLACEMENT_3D('',#1149,#1150,#1151);
#628=SURFACE_SIDE_STYLE('',(#1152));
#629=EDGE_LOOP('',(#1153,#1154,#1155,#1156));
#630=AXIS2_PLACEMENT_3D('',#1157,#1158,#1159);
#631=SURFACE_SIDE_STYLE('',(#1160));
#632=EDGE_LOOP('',(#1161,#1162,#1163,#1164));
#633=AXIS2_PLACEMENT_3D('',#1165,#1166,#1167);
#634=SURFACE_SIDE_STYLE('',(#1168));
#635=EDGE_LOOP('',(#1169,#1170,#1171,#1172));
#636=AXIS2_PLACEMENT_3D('',#1173,#1174,#1175);
#637=SURFACE_SIDE_STYLE('',(#1176));
#638=EDGE_LOOP('',(#1177,#1178,#1179,#1180));
#639=AXIS2_PLACEMENT_3D('',#1181,#1182,#1183);
#640=SURFACE_SIDE_STYLE('',(#1184));
#641=EDGE_LOOP('',(#1185,#1186));
#642=AXIS2_PLACEMENT_3D('',#1187,#1188,#1189);
#643=SURFACE_SIDE_STYLE('',(#1190));
#644=EDGE_LOOP('',(#1191,#1192,#1193,#1194));
#645=AXIS2_PLACEMENT_3D('',#1195,#1196,#1197);
#646=SURFACE_SIDE_STYLE('',(#1198));
#647=EDGE_LOOP('',(#1199,#1200));
#648=AXIS2_PLACEMENT_3D('',#1201,#1202,#1203);
#649=SURFACE_SIDE_STYLE('',(#1204));
#650=EDGE_LOOP('',(#1205,#1206,#1207,#1208));
#651=AXIS2_PLACEMENT_3D('',#1209,#1210,#1211);
#652=SURFACE_SIDE_STYLE('',(#1212));
#653=EDGE_LOOP('',(#1213,#1214));
#654=AXIS2_PLACEMENT_3D('',#1215,#1216,#1217);
#655=SURFACE_SIDE_STYLE('',(#1218));
#656=EDGE_LOOP('',(#1219,#1220,#1221,#1222));
#657=AXIS2_PLACEMENT_3D('',#1223,#1224,#1225);
#658=SURFACE_SIDE_STYLE('',(#1226));
#659=EDGE_LOOP('',(#1227,#1228));
#660=AXIS2_PLACEMENT_3D('',#1229,#1230,#1231);
#661=SURFACE_SIDE_STYLE('',(#1232));
#663=SURFACE_STYLE_FILL_AREA(#1233);
#664=ORIENTED_EDGE('',*,*,#1234,.T.);
#665=ORIENTED_EDGE('',*,*,#1235,.T.);
#666=ORIENTED_EDGE('',*,*,#1236,.F.);
#667=ORIENTED_EDGE('',*,*,#1237,.F.);
#668=CARTESIAN_POINT('',(0.0,0.0,8.0));
#669=DIRECTION('',(0.0,0.0,-1.0));
#670=DIRECTION('',(1.0,0.0,0.0));
#671=SURFACE_STYLE_FILL_AREA(#1238);
#672=ORIENTED_EDGE('',*,*,#1235,.F.);
#673=ORIENTED_EDGE('',*,*,#1239,.T.);
#674=ORIENTED_EDGE('',*,*,#1237,.T.);
#675=ORIENTED_EDGE('',*,*,#1240,.F.);
#676=CARTESIAN_POINT('',(0.0,0.0,8.0));
#677=DIRECTION('',(0.0,0.0,-1.0));
#678=DIRECTION('',(1.0,0.0,0.0));
#679=SURFACE_STYLE_FILL_AREA(#1241);
#680=ORIENTED_EDGE('',*,*,#1234,.F.);
#681=ORIENTED_EDGE('',*,*,#1239,.F.);
#682=CARTESIAN_POINT('',(0.0,0.0,8.0));
#683=DIRECTION('',(0.0,0.0,1.0));
#684=DIRECTION('',(1.0,0.0,0.0));
#685=SURFACE_STYLE_FILL_AREA(#1242);
#686=ORIENTED_EDGE('',*,*,#1236,.T.);
#687=ORIENTED_EDGE('',*,*,#1240,.T.);
#688=CARTESIAN_POINT('',(0.0,0.0,13.0));
#689=DIRECTION('',(0.0,0.0,1.0));
#690=DIRECTION('',(1.0,0.0,0.0));
#691=SURFACE_STYLE_FILL_AREA(#1243);
#692=SURFACE_STYLE_FILL_AREA(#1244);
#693=ORIENTED_EDGE('',*,*,#1245,.F.);
#694=ORIENTED_EDGE('',*,*,#1246,.T.);
#695=ORIENTED_EDGE('',*,*,#1247,.T.);
#696=ORIENTED_EDGE('',*,*,#1248,.F.);
#697=CARTESIAN_POINT('',(3.2,-3.2,6.07));
#698=DIRECTION('',(0.0,0.0,1.0));
#699=DIRECTION('',(-1.0,0.0,0.0));
#700=SURFACE_STYLE_FILL_AREA(#1249);
#701=ORIENTED_EDGE('',*,*,#1250,.F.);
#702=ORIENTED_EDGE('',*,*,#1251,.T.);
#703=ORIENTED_EDGE('',*,*,#1252,.T.);
#704=ORIENTED_EDGE('',*,*,#1253,.F.);
#705=CARTESIAN_POINT('',(-3.2,-3.2,6.07));
#706=DIRECTION('',(0.0,0.0,1.0));
#707=DIRECTION('',(-1.0,0.0,0.0));
#708=SURFACE_STYLE_FILL_AREA(#1254);
#709=ORIENTED_EDGE('',*,*,#1255,.F.);
#710=ORIENTED_EDGE('',*,*,#1256,.T.);
#711=ORIENTED_EDGE('',*,*,#1257,.T.);
#712=ORIENTED_EDGE('',*,*,#1258,.F.);
#713=CARTESIAN_POINT('',(-3.2,3.2,6.07));
#714=DIRECTION('',(0.0,0.0,1.0));
#715=DIRECTION('',(-1.0,0.0,0.0));
#716=SURFACE_STYLE_FILL_AREA(#1259);
#717=ORIENTED_EDGE('',*,*,#1260,.F.);
#718=ORIENTED_EDGE('',*,*,#1261,.T.);
#719=ORIENTED_EDGE('',*,*,#1262,.T.);
#720=ORIENTED_EDGE('',*,*,#1263,.F.);
#721=CARTESIAN_POINT('',(3.2,3.2,6.07));
#722=DIRECTION('',(0.0,0.0,1.0));
#723=DIRECTION('',(-1.0,0.0,0.0));
#724=SURFACE_STYLE_FILL_AREA(#1264);
#725=ORIENTED_EDGE('',*,*,#1265,.F.);
#726=ORIENTED_EDGE('',*,*,#1266,.T.);
#727=ORIENTED_EDGE('',*,*,#1267,.T.);
#728=ORIENTED_EDGE('',*,*,#1268,.F.);
#729=CARTESIAN_POINT('',(0.0,0.0,7.5));
#730=DIRECTION('',(0.0,0.0,-1.0));
#731=DIRECTION('',(1.0,0.0,0.0));
#732=SURFACE_STYLE_FILL_AREA(#1269);
#733=ORIENTED_EDGE('',*,*,#1270,.T.);
#734=ORIENTED_EDGE('',*,*,#1271,.T.);
#735=ORIENTED_EDGE('',*,*,#1272,.T.);
#736=ORIENTED_EDGE('',*,*,#1273,.T.);
#737=ORIENTED_EDGE('',*,*,#1274,.T.);
#738=ORIENTED_EDGE('',*,*,#1275,.F.);
#739=ORIENTED_EDGE('',*,*,#1247,.F.);
#740=CARTESIAN_POINT('',(3.2,-3.2,5.87));
#741=DIRECTION('',(0.0,0.0,-1.0));
#742=DIRECTION('',(0.0,-1.0,0.0));
#743=SURFACE_STYLE_FILL_AREA(#1276);
#744=ORIENTED_EDGE('',*,*,#1277,.T.);
#745=ORIENTED_EDGE('',*,*,#1278,.T.);
#746=ORIENTED_EDGE('',*,*,#1279,.T.);
#747=ORIENTED_EDGE('',*,*,#1280,.T.);
#748=ORIENTED_EDGE('',*,*,#1281,.T.);
#749=ORIENTED_EDGE('',*,*,#1282,.F.);
#750=ORIENTED_EDGE('',*,*,#1252,.F.);
#751=CARTESIAN_POINT('',(-3.2,-3.2,5.87));
#752=DIRECTION('',(0.0,0.0,1.0));
#753=DIRECTION('',(1.0,-0.0,0.0));
#754=SURFACE_STYLE_FILL_AREA(#1283);
#755=ORIENTED_EDGE('',*,*,#1284,.T.);
#756=ORIENTED_EDGE('',*,*,#1285,.T.);
#757=ORIENTED_EDGE('',*,*,#1286,.T.);
#758=ORIENTED_EDGE('',*,*,#1287,.T.);
#759=ORIENTED_EDGE('',*,*,#1288,.T.);
#760=ORIENTED_EDGE('',*,*,#1289,.F.);
#761=ORIENTED_EDGE('',*,*,#1257,.F.);
#762=CARTESIAN_POINT('',(-3.2,3.2,5.87));
#763=DIRECTION('',(0.0,0.0,1.0));
#764=DIRECTION('',(1.0,-0.0,0.0));
#765=SURFACE_STYLE_FILL_AREA(#1290);
#766=ORIENTED_EDGE('',*,*,#1291,.T.);
#767=ORIENTED_EDGE('',*,*,#1292,.T.);
#768=ORIENTED_EDGE('',*,*,#1293,.T.);
#769=ORIENTED_EDGE('',*,*,#1294,.T.);
#770=ORIENTED_EDGE('',*,*,#1295,.T.);
#771=ORIENTED_EDGE('',*,*,#1296,.F.);
#772=ORIENTED_EDGE('',*,*,#1262,.F.);
#773=CARTESIAN_POINT('',(3.2,3.2,5.87));
#774=DIRECTION('',(0.0,0.0,-1.0));
#775=DIRECTION('',(0.0,-1.0,0.0));
#776=SURFACE_STYLE_FILL_AREA(#1297);
#777=ORIENTED_EDGE('',*,*,#1298,.T.);
#778=ORIENTED_EDGE('',*,*,#1299,.F.);
#779=ORIENTED_EDGE('',*,*,#1300,.F.);
#780=ORIENTED_EDGE('',*,*,#1301,.T.);
#781=ORIENTED_EDGE('',*,*,#1302,.F.);
#782=ORIENTED_EDGE('',*,*,#1303,.F.);
#783=ORIENTED_EDGE('',*,*,#1304,.F.);
#784=ORIENTED_EDGE('',*,*,#1305,.F.);
#785=CARTESIAN_POINT('',(-2.1,-4.0,0.9));
#786=DIRECTION('',(0.0,0.0,1.0));
#787=DIRECTION('',(1.0,-0.0,0.0));
#788=SURFACE_STYLE_FILL_AREA(#1306);
#789=ORIENTED_EDGE('',*,*,#1307,.T.);
#790=ORIENTED_EDGE('',*,*,#1308,.F.);
#791=ORIENTED_EDGE('',*,*,#1309,.F.);
#792=ORIENTED_EDGE('',*,*,#1310,.T.);
#793=ORIENTED_EDGE('',*,*,#1311,.F.);
#794=ORIENTED_EDGE('',*,*,#1312,.F.);
#795=ORIENTED_EDGE('',*,*,#1313,.F.);
#796=ORIENTED_EDGE('',*,*,#1314,.F.);
#797=CARTESIAN_POINT('',(2.1,-4.0,0.9));
#798=DIRECTION('',(0.0,0.0,1.0));
#799=DIRECTION('',(1.0,-0.0,0.0));
#800=SURFACE_STYLE_FILL_AREA(#1315);
#801=ORIENTED_EDGE('',*,*,#1316,.F.);
#802=ORIENTED_EDGE('',*,*,#1317,.F.);
#803=ORIENTED_EDGE('',*,*,#1318,.F.);
#804=ORIENTED_EDGE('',*,*,#1319,.T.);
#805=CARTESIAN_POINT('',(-4.0,4.0,7.5));
#806=DIRECTION('',(0.0,0.0,1.0));
#807=DIRECTION('',(1.0,-0.0,0.0));
#808=SURFACE_STYLE_FILL_AREA(#1320);
#809=ORIENTED_EDGE('',*,*,#1321,.F.);
#810=ORIENTED_EDGE('',*,*,#1322,.F.);
#811=ORIENTED_EDGE('',*,*,#1323,.F.);
#812=ORIENTED_EDGE('',*,*,#1324,.T.);
#813=CARTESIAN_POINT('',(-4.0,4.0,7.5));
#814=DIRECTION('',(0.0,0.0,1.0));
#815=DIRECTION('',(1.0,-0.0,0.0));
#816=SURFACE_STYLE_FILL_AREA(#1325);
#817=ORIENTED_EDGE('',*,*,#1326,.F.);
#818=ORIENTED_EDGE('',*,*,#1327,.F.);
#819=ORIENTED_EDGE('',*,*,#1328,.F.);
#820=ORIENTED_EDGE('',*,*,#1329,.T.);
#821=CARTESIAN_POINT('',(-4.0,4.0,7.5));
#822=DIRECTION('',(0.0,0.0,1.0));
#823=DIRECTION('',(1.0,-0.0,0.0));
#824=SURFACE_STYLE_FILL_AREA(#1330);
#825=ORIENTED_EDGE('',*,*,#1331,.F.);
#826=ORIENTED_EDGE('',*,*,#1298,.F.);
#827=ORIENTED_EDGE('',*,*,#1332,.F.);
#828=ORIENTED_EDGE('',*,*,#1277,.F.);
#829=ORIENTED_EDGE('',*,*,#1333,.T.);
#830=ORIENTED_EDGE('',*,*,#1324,.F.);
#831=ORIENTED_EDGE('',*,*,#1334,.F.);
#832=ORIENTED_EDGE('',*,*,#1284,.F.);
#833=ORIENTED_EDGE('',*,*,#1335,.T.);
#834=ORIENTED_EDGE('',*,*,#1336,.T.);
#835=CARTESIAN_POINT('',(-4.0,4.0,9.0));
#836=DIRECTION('',(1.0,1.27447352890596E-48,1.17549435082229E-32));
#837=DIRECTION('',(0.0,1.0,-1.0842021724855E-16));
#838=SURFACE_STYLE_FILL_AREA(#1337);
#839=ORIENTED_EDGE('',*,*,#1338,.F.);
#840=ORIENTED_EDGE('',*,*,#1308,.T.);
#841=ORIENTED_EDGE('',*,*,#1339,.F.);
#842=ORIENTED_EDGE('',*,*,#1274,.F.);
#843=ORIENTED_EDGE('',*,*,#1340,.T.);
#844=ORIENTED_EDGE('',*,*,#1319,.F.);
#845=ORIENTED_EDGE('',*,*,#1341,.F.);
#846=ORIENTED_EDGE('',*,*,#1278,.F.);
#847=ORIENTED_EDGE('',*,*,#1332,.T.);
#848=ORIENTED_EDGE('',*,*,#1301,.F.);
#849=ORIENTED_EDGE('',*,*,#1342,.F.);
#850=ORIENTED_EDGE('',*,*,#1343,.T.);
#851=CARTESIAN_POINT('',(-4.0,-4.0,9.0));
#852=DIRECTION('',(0.0,1.0,0.0));
#853=DIRECTION('',(1.0,0.0,-0.0));
#854=SURFACE_STYLE_FILL_AREA(#1344);
#855=ORIENTED_EDGE('',*,*,#1339,.T.);
#856=ORIENTED_EDGE('',*,*,#1307,.F.);
#857=ORIENTED_EDGE('',*,*,#1345,.F.);
#858=ORIENTED_EDGE('',*,*,#1346,.T.);
#859=ORIENTED_EDGE('',*,*,#1347,.F.);
#860=ORIENTED_EDGE('',*,*,#1294,.F.);
#861=ORIENTED_EDGE('',*,*,#1348,.T.);
#862=ORIENTED_EDGE('',*,*,#1349,.F.);
#863=ORIENTED_EDGE('',*,*,#1350,.F.);
#864=ORIENTED_EDGE('',*,*,#1270,.F.);
#865=CARTESIAN_POINT('',(4.0,4.0,9.0));
#866=DIRECTION('',(-1.0,-1.84314369322536E-15,0.0));
#867=DIRECTION('',(-1.84314369322536E-15,1.0,0.0));
#868=SURFACE_STYLE_FILL_AREA(#1351);
#869=ORIENTED_EDGE('',*,*,#1288,.F.);
#870=ORIENTED_EDGE('',*,*,#1352,.T.);
#871=ORIENTED_EDGE('',*,*,#1329,.F.);
#872=ORIENTED_EDGE('',*,*,#1353,.F.);
#873=ORIENTED_EDGE('',*,*,#1295,.F.);
#874=ORIENTED_EDGE('',*,*,#1347,.T.);
#875=ORIENTED_EDGE('',*,*,#1354,.T.);
#876=ORIENTED_EDGE('',*,*,#1335,.F.);
#877=CARTESIAN_POINT('',(-4.0,4.0,9.0));
#878=DIRECTION('',(0.0,-1.0,0.0));
#879=DIRECTION('',(0.0,0.0,-1.0));
#880=SURFACE_STYLE_FILL_AREA(#1355);
#881=ORIENTED_EDGE('',*,*,#1346,.F.);
#882=ORIENTED_EDGE('',*,*,#1356,.F.);
#883=ORIENTED_EDGE('',*,*,#1357,.F.);
#884=ORIENTED_EDGE('',*,*,#1343,.F.);
#885=ORIENTED_EDGE('',*,*,#1358,.F.);
#886=ORIENTED_EDGE('',*,*,#1359,.T.);
#887=ORIENTED_EDGE('',*,*,#1336,.F.);
#888=ORIENTED_EDGE('',*,*,#1354,.F.);
#889=CARTESIAN_POINT('',(-4.0,-4.0,0.0));
#890=DIRECTION('',(0.0,0.0,1.0));
#891=DIRECTION('',(1.0,-0.0,0.0));
#892=SURFACE_STYLE_FILL_AREA(#1360);
#893=ORIENTED_EDGE('',*,*,#1361,.F.);
#894=ORIENTED_EDGE('',*,*,#1349,.T.);
#895=ORIENTED_EDGE('',*,*,#1362,.F.);
#896=ORIENTED_EDGE('',*,*,#1363,.F.);
#897=CARTESIAN_POINT('',(-4.0,4.0,7.5));
#898=DIRECTION('',(0.0,0.0,1.0));
#899=DIRECTION('',(1.0,-0.0,0.0));
#900=SURFACE_STYLE_FILL_AREA(#1364);
#901=ORIENTED_EDGE('',*,*,#1365,.T.);
#902=ORIENTED_EDGE('',*,*,#1366,.F.);
#903=ORIENTED_EDGE('',*,*,#1367,.F.);
#904=ORIENTED_EDGE('',*,*,#1327,.T.);
#905=CARTESIAN_POINT('',(3.2,3.2,7.5));
#906=DIRECTION('',(0.0,1.0,0.0));
#907=DIRECTION('',(1.0,0.0,-0.0));
#908=SURFACE_STYLE_FILL_AREA(#1368);
#909=ORIENTED_EDGE('',*,*,#1369,.F.);
#910=ORIENTED_EDGE('',*,*,#1363,.T.);
#911=ORIENTED_EDGE('',*,*,#1370,.T.);
#912=ORIENTED_EDGE('',*,*,#1371,.F.);
#913=CARTESIAN_POINT('',(3.2,-3.2,7.5));
#914=DIRECTION('',(1.0,6.83038156898042E-45,3.59995144939326E-30));
#915=DIRECTION('',(0.0,1.0,-1.89735380184964E-15));
#916=SURFACE_STYLE_FILL_AREA(#1372);
#917=ORIENTED_EDGE('',*,*,#1373,.T.);
#918=ORIENTED_EDGE('',*,*,#1374,.F.);
#919=ORIENTED_EDGE('',*,*,#1375,.F.);
#920=ORIENTED_EDGE('',*,*,#1317,.T.);
#921=CARTESIAN_POINT('',(-3.2,-3.2,7.5));
#922=DIRECTION('',(0.0,-1.0,0.0));
#923=DIRECTION('',(0.0,0.0,-1.0));
#924=SURFACE_STYLE_FILL_AREA(#1376);
#925=ORIENTED_EDGE('',*,*,#1377,.T.);
#926=ORIENTED_EDGE('',*,*,#1378,.F.);
#927=ORIENTED_EDGE('',*,*,#1379,.F.);
#928=ORIENTED_EDGE('',*,*,#1322,.T.);
#929=CARTESIAN_POINT('',(-3.2,3.2,7.5));
#930=DIRECTION('',(-1.0,-1.35525271560688E-16,0.0));
#931=DIRECTION('',(-1.35525271560688E-16,1.0,0.0));
#932=SURFACE_STYLE_FILL_AREA(#1380);
#933=ORIENTED_EDGE('',*,*,#1381,.F.);
#934=ORIENTED_EDGE('',*,*,#1371,.T.);
#935=ORIENTED_EDGE('',*,*,#1382,.F.);
#936=ORIENTED_EDGE('',*,*,#1366,.T.);
#937=ORIENTED_EDGE('',*,*,#1383,.F.);
#938=ORIENTED_EDGE('',*,*,#1378,.T.);
#939=ORIENTED_EDGE('',*,*,#1384,.F.);
#940=ORIENTED_EDGE('',*,*,#1374,.T.);
#941=ORIENTED_EDGE('',*,*,#1385,.F.);
#942=ORIENTED_EDGE('',*,*,#1267,.F.);
#943=CARTESIAN_POINT('',(-4.0,-4.0,9.0));
#944=DIRECTION('',(0.0,0.0,1.0));
#945=DIRECTION('',(1.0,-0.0,0.0));
#946=SURFACE_STYLE_FILL_AREA(#1386);
#947=ORIENTED_EDGE('',*,*,#1328,.T.);
#948=ORIENTED_EDGE('',*,*,#1387,.F.);
#949=ORIENTED_EDGE('',*,*,#1291,.F.);
#950=ORIENTED_EDGE('',*,*,#1353,.T.);
#951=CARTESIAN_POINT('',(2.4,4.0,5.87));
#952=DIRECTION('',(-1.0,0.0,0.0));
#953=DIRECTION('',(0.0,0.0,1.0));
#954=SURFACE_STYLE_FILL_AREA(#1388);
#955=ORIENTED_EDGE('',*,*,#1362,.T.);
#956=ORIENTED_EDGE('',*,*,#1348,.F.);
#957=ORIENTED_EDGE('',*,*,#1293,.F.);
#958=ORIENTED_EDGE('',*,*,#1389,.T.);
#959=CARTESIAN_POINT('',(3.2,2.4,5.87));
#960=DIRECTION('',(0.0,-1.0,0.0));
#961=DIRECTION('',(0.0,0.0,-1.0));
#962=SURFACE_STYLE_FILL_AREA(#1390);
#963=ORIENTED_EDGE('',*,*,#1382,.T.);
#964=ORIENTED_EDGE('',*,*,#1370,.F.);
#965=ORIENTED_EDGE('',*,*,#1389,.F.);
#966=ORIENTED_EDGE('',*,*,#1292,.F.);
#967=ORIENTED_EDGE('',*,*,#1387,.T.);
#968=ORIENTED_EDGE('',*,*,#1367,.T.);
#969=CARTESIAN_POINT('',(3.2,3.2,5.87));
#970=DIRECTION('',(0.0,0.0,-1.0));
#971=DIRECTION('',(1.0,0.0,0.0));
#972=SURFACE_STYLE_FILL_AREA(#1391);
#973=ORIENTED_EDGE('',*,*,#1326,.T.);
#974=ORIENTED_EDGE('',*,*,#1352,.F.);
#975=ORIENTED_EDGE('',*,*,#1287,.F.);
#976=ORIENTED_EDGE('',*,*,#1392,.T.);
#977=CARTESIAN_POINT('',(-2.4,4.0,5.87));
#978=DIRECTION('',(1.0,0.0,0.0));
#979=DIRECTION('',(0.0,1.0,-0.0));
#980=SURFACE_STYLE_FILL_AREA(#1393);
#981=ORIENTED_EDGE('',*,*,#1383,.T.);
#982=ORIENTED_EDGE('',*,*,#1365,.F.);
#983=ORIENTED_EDGE('',*,*,#1392,.F.);
#984=ORIENTED_EDGE('',*,*,#1286,.F.);
#985=ORIENTED_EDGE('',*,*,#1394,.T.);
#986=ORIENTED_EDGE('',*,*,#1379,.T.);
#987=CARTESIAN_POINT('',(-3.2,3.2,5.87));
#988=DIRECTION('',(0.0,0.0,-1.0));
#989=DIRECTION('',(1.0,0.0,0.0));
#990=SURFACE_STYLE_FILL_AREA(#1395);
#991=ORIENTED_EDGE('',*,*,#1323,.T.);
#992=ORIENTED_EDGE('',*,*,#1394,.F.);
#993=ORIENTED_EDGE('',*,*,#1285,.F.);
#994=ORIENTED_EDGE('',*,*,#1334,.T.);
#995=CARTESIAN_POINT('',(-4.0,2.4,5.87));
#996=DIRECTION('',(0.0,-1.0,0.0));
#997=DIRECTION('',(0.0,0.0,-1.0));
#998=SURFACE_STYLE_FILL_AREA(#1396);
#999=ORIENTED_EDGE('',*,*,#1321,.T.);
#1000=ORIENTED_EDGE('',*,*,#1333,.F.);
#1001=ORIENTED_EDGE('',*,*,#1281,.F.);
#1002=ORIENTED_EDGE('',*,*,#1397,.T.);
#1003=CARTESIAN_POINT('',(-4.0,-2.4,5.87));
#1004=DIRECTION('',(0.0,1.0,0.0));
#1005=DIRECTION('',(1.0,0.0,-0.0));
#1006=SURFACE_STYLE_FILL_AREA(#1398);
#1007=ORIENTED_EDGE('',*,*,#1384,.T.);
#1008=ORIENTED_EDGE('',*,*,#1377,.F.);
#1009=ORIENTED_EDGE('',*,*,#1397,.F.);
#1010=ORIENTED_EDGE('',*,*,#1280,.F.);
#1011=ORIENTED_EDGE('',*,*,#1399,.T.);
#1012=ORIENTED_EDGE('',*,*,#1375,.T.);
#1013=CARTESIAN_POINT('',(-3.2,-3.2,5.87));
#1014=DIRECTION('',(0.0,0.0,-1.0));
#1015=DIRECTION('',(1.0,0.0,0.0));
#1016=SURFACE_STYLE_FILL_AREA(#1400);
#1017=ORIENTED_EDGE('',*,*,#1318,.T.);
#1018=ORIENTED_EDGE('',*,*,#1399,.F.);
#1019=ORIENTED_EDGE('',*,*,#1279,.F.);
#1020=ORIENTED_EDGE('',*,*,#1341,.T.);
#1021=CARTESIAN_POINT('',(-2.4,-3.2,5.87));
#1022=DIRECTION('',(1.0,0.0,0.0));
#1023=DIRECTION('',(0.0,1.0,-0.0));
#1024=SURFACE_STYLE_FILL_AREA(#1401);
#1025=ORIENTED_EDGE('',*,*,#1316,.T.);
#1026=ORIENTED_EDGE('',*,*,#1340,.F.);
#1027=ORIENTED_EDGE('',*,*,#1273,.F.);
#1028=ORIENTED_EDGE('',*,*,#1402,.T.);
#1029=CARTESIAN_POINT('',(2.4,-3.2,5.87));
#1030=DIRECTION('',(-1.0,-5.42101086242756E-16,0.0));
#1031=DIRECTION('',(-5.42101086242756E-16,1.0,0.0));
#1032=SURFACE_STYLE_FILL_AREA(#1403);
#1033=ORIENTED_EDGE('',*,*,#1381,.T.);
#1034=ORIENTED_EDGE('',*,*,#1373,.F.);
#1035=ORIENTED_EDGE('',*,*,#1402,.F.);
#1036=ORIENTED_EDGE('',*,*,#1272,.F.);
#1037=ORIENTED_EDGE('',*,*,#1404,.T.);
#1038=ORIENTED_EDGE('',*,*,#1369,.T.);
#1039=CARTESIAN_POINT('',(3.2,-3.2,5.87));
#1040=DIRECTION('',(0.0,0.0,-1.0));
#1041=DIRECTION('',(1.0,0.0,0.0));
#1042=SURFACE_STYLE_FILL_AREA(#1405);
#1043=ORIENTED_EDGE('',*,*,#1361,.T.);
#1044=ORIENTED_EDGE('',*,*,#1404,.F.);
#1045=ORIENTED_EDGE('',*,*,#1271,.F.);
#1046=ORIENTED_EDGE('',*,*,#1350,.T.);
#1047=CARTESIAN_POINT('',(3.2,-2.4,5.87));
#1048=DIRECTION('',(0.0,1.0,0.0));
#1049=DIRECTION('',(1.0,0.0,-0.0));
#1050=SURFACE_STYLE_FILL_AREA(#1406);
#1051=ORIENTED_EDGE('',*,*,#1331,.T.);
#1052=ORIENTED_EDGE('',*,*,#1359,.F.);
#1053=ORIENTED_EDGE('',*,*,#1407,.F.);
#1054=ORIENTED_EDGE('',*,*,#1299,.T.);
#1055=CARTESIAN_POINT('',(-2.1,0.72,4.0167088405374E-16));
#1056=DIRECTION('',(-9.38772793491063E-17,0.865865073244551,0.500277597874628));
#1057=DIRECTION('',(1.0,0.0,1.87650376007107E-16));
#1058=SURFACE_STYLE_FILL_AREA(#1408);
#1059=ORIENTED_EDGE('',*,*,#1300,.T.);
#1060=ORIENTED_EDGE('',*,*,#1407,.T.);
#1061=ORIENTED_EDGE('',*,*,#1358,.T.);
#1062=ORIENTED_EDGE('',*,*,#1342,.T.);
#1063=CARTESIAN_POINT('',(-2.1,-4.0,0.9));
#1064=DIRECTION('',(-1.0,-2.06514699521048E-16,-1.99025498551921E-31));
#1065=DIRECTION('',(-2.06514699521048E-16,1.0,0.0));
#1066=SURFACE_STYLE_FILL_AREA(#1409);
#1067=ORIENTED_EDGE('',*,*,#1266,.F.);
#1068=ORIENTED_EDGE('',*,*,#1410,.F.);
#1069=ORIENTED_EDGE('',*,*,#1268,.T.);
#1070=ORIENTED_EDGE('',*,*,#1385,.T.);
#1071=CARTESIAN_POINT('',(0.0,0.0,7.5));
#1072=DIRECTION('',(0.0,0.0,-1.0));
#1073=DIRECTION('',(1.0,0.0,0.0));
#1074=SURFACE_STYLE_FILL_AREA(#1411);
#1075=ORIENTED_EDGE('',*,*,#1410,.T.);
#1076=ORIENTED_EDGE('',*,*,#1265,.T.);
#1077=CARTESIAN_POINT('',(0.0,0.0,7.5));
#1078=DIRECTION('',(0.0,0.0,1.0));
#1079=DIRECTION('',(1.0,-0.0,0.0));
#1080=SURFACE_STYLE_FILL_AREA(#1412);
#1081=ORIENTED_EDGE('',*,*,#1345,.T.);
#1082=ORIENTED_EDGE('',*,*,#1310,.F.);
#1083=ORIENTED_EDGE('',*,*,#1413,.F.);
#1084=ORIENTED_EDGE('',*,*,#1356,.T.);
#1085=CARTESIAN_POINT('',(2.1,0.200000000000006,0.9));
#1086=DIRECTION('',(-1.59591374893481E-15,0.865865073244551,0.500277597874628));
#1087=DIRECTION('',(1.0,0.0,3.19005639212082E-15));
#1088=SURFACE_STYLE_FILL_AREA(#1414);
#1089=ORIENTED_EDGE('',*,*,#1357,.T.);
#1090=ORIENTED_EDGE('',*,*,#1413,.T.);
#1091=ORIENTED_EDGE('',*,*,#1309,.T.);
#1092=ORIENTED_EDGE('',*,*,#1338,.T.);
#1093=CARTESIAN_POINT('',(2.1,-4.0,0.0));
#1094=DIRECTION('',(-1.0,-2.02139388090517E-15,1.94808856633448E-29));
#1095=DIRECTION('',(-2.02139388090517E-15,1.0,0.0));
#1096=SURFACE_STYLE_FILL_AREA(#1415);
#1097=ORIENTED_EDGE('',*,*,#1311,.T.);
#1098=ORIENTED_EDGE('',*,*,#1416,.F.);
#1099=ORIENTED_EDGE('',*,*,#1417,.F.);
#1100=ORIENTED_EDGE('',*,*,#1418,.T.);
#1101=CARTESIAN_POINT('',(2.8,-0.149999999999996,-4.1));
#1102=DIRECTION('',(-1.0,1.44560289664734E-15,0.0));
#1103=DIRECTION('',(0.0,0.0,1.0));
#1104=SURFACE_STYLE_FILL_AREA(#1419);
#1105=ORIENTED_EDGE('',*,*,#1314,.T.);
#1106=ORIENTED_EDGE('',*,*,#1420,.F.);
#1107=ORIENTED_EDGE('',*,*,#1421,.F.);
#1108=ORIENTED_EDGE('',*,*,#1416,.T.);
#1109=CARTESIAN_POINT('',(2.8,-0.149999999999996,-4.1));
#1110=DIRECTION('',(0.0,1.0,0.0));
#1111=DIRECTION('',(1.0,0.0,-0.0));
#1112=SURFACE_STYLE_FILL_AREA(#1422);
#1113=ORIENTED_EDGE('',*,*,#1313,.T.);
#1114=ORIENTED_EDGE('',*,*,#1423,.F.);
#1115=ORIENTED_EDGE('',*,*,#1424,.F.);
#1116=ORIENTED_EDGE('',*,*,#1420,.T.);
#1117=CARTESIAN_POINT('',(2.2,-0.149999999999996,-4.1));
#1118=DIRECTION('',(1.0,3.02097429074006E-45,2.08976773479518E-30));
#1119=DIRECTION('',(0.0,1.0,-1.44560289664734E-15));
#1120=SURFACE_STYLE_FILL_AREA(#1425);
#1121=ORIENTED_EDGE('',*,*,#1312,.T.);
#1122=ORIENTED_EDGE('',*,*,#1418,.F.);
#1123=ORIENTED_EDGE('',*,*,#1426,.F.);
#1124=ORIENTED_EDGE('',*,*,#1423,.T.);
#1125=CARTESIAN_POINT('',(2.8,0.150000000000004,-4.1));
#1126=DIRECTION('',(-1.80700362080917E-16,-1.0,0.0));
#1127=DIRECTION('',(-1.0,1.80700362080917E-16,0.0));
#1128=SURFACE_STYLE_FILL_AREA(#1427);
#1129=ORIENTED_EDGE('',*,*,#1417,.T.);
#1130=ORIENTED_EDGE('',*,*,#1421,.T.);
#1131=ORIENTED_EDGE('',*,*,#1424,.T.);
#1132=ORIENTED_EDGE('',*,*,#1426,.T.);
#1133=CARTESIAN_POINT('',(2.8,0.150000000000004,-4.1));
#1134=DIRECTION('',(0.0,0.0,1.0));
#1135=DIRECTION('',(1.0,-0.0,0.0));
#1136=SURFACE_STYLE_FILL_AREA(#1428);
#1137=ORIENTED_EDGE('',*,*,#1302,.T.);
#1138=ORIENTED_EDGE('',*,*,#1429,.F.);
#1139=ORIENTED_EDGE('',*,*,#1430,.F.);
#1140=ORIENTED_EDGE('',*,*,#1431,.T.);
#1141=CARTESIAN_POINT('',(-2.8,-0.149999999999996,-4.1));
#1142=DIRECTION('',(0.0,1.0,0.0));
#1143=DIRECTION('',(1.0,0.0,-0.0));
#1144=SURFACE_STYLE_FILL_AREA(#1432);
#1145=ORIENTED_EDGE('',*,*,#1305,.T.);
#1146=ORIENTED_EDGE('',*,*,#1433,.F.);
#1147=ORIENTED_EDGE('',*,*,#1434,.F.);
#1148=ORIENTED_EDGE('',*,*,#1429,.T.);
#1149=CARTESIAN_POINT('',(-2.8,-0.149999999999996,-4.1));
#1150=DIRECTION('',(1.0,3.02097429074006E-45,2.08976773479518E-30));
#1151=DIRECTION('',(0.0,1.0,-1.44560289664734E-15));
#1152=SURFACE_STYLE_FILL_AREA(#1435);
#1153=ORIENTED_EDGE('',*,*,#1304,.T.);
#1154=ORIENTED_EDGE('',*,*,#1436,.F.);
#1155=ORIENTED_EDGE('',*,*,#1437,.F.);
#1156=ORIENTED_EDGE('',*,*,#1433,.T.);
#1157=CARTESIAN_POINT('',(-2.8,0.150000000000004,-4.1));
#1158=DIRECTION('',(1.80700362080917E-16,-1.0,0.0));
#1159=DIRECTION('',(0.0,0.0,-1.0));
#1160=SURFACE_STYLE_FILL_AREA(#1438);
#1161=ORIENTED_EDGE('',*,*,#1303,.T.);
#1162=ORIENTED_EDGE('',*,*,#1431,.F.);
#1163=ORIENTED_EDGE('',*,*,#1439,.F.);
#1164=ORIENTED_EDGE('',*,*,#1436,.T.);
#1165=CARTESIAN_POINT('',(-2.2,-0.149999999999996,-4.1));
#1166=DIRECTION('',(-1.0,1.44560289664734E-15,0.0));
#1167=DIRECTION('',(0.0,0.0,1.0));
#1168=SURFACE_STYLE_FILL_AREA(#1440);
#1169=ORIENTED_EDGE('',*,*,#1430,.T.);
#1170=ORIENTED_EDGE('',*,*,#1434,.T.);
#1171=ORIENTED_EDGE('',*,*,#1437,.T.);
#1172=ORIENTED_EDGE('',*,*,#1439,.T.);
#1173=CARTESIAN_POINT('',(-2.2,-0.149999999999996,-4.1));
#1174=DIRECTION('',(0.0,0.0,1.0));
#1175=DIRECTION('',(1.0,-0.0,0.0));
#1176=SURFACE_STYLE_FILL_AREA(#1441);
#1177=ORIENTED_EDGE('',*,*,#1261,.F.);
#1178=ORIENTED_EDGE('',*,*,#1442,.F.);
#1179=ORIENTED_EDGE('',*,*,#1263,.T.);
#1180=ORIENTED_EDGE('',*,*,#1296,.T.);
#1181=CARTESIAN_POINT('',(3.2,3.2,6.07));
#1182=DIRECTION('',(0.0,0.0,1.0));
#1183=DIRECTION('',(-1.0,0.0,0.0));
#1184=SURFACE_STYLE_FILL_AREA(#1443);
#1185=ORIENTED_EDGE('',*,*,#1442,.T.);
#1186=ORIENTED_EDGE('',*,*,#1260,.T.);
#1187=CARTESIAN_POINT('',(3.2,3.2,6.07));
#1188=DIRECTION('',(0.0,0.0,1.0));
#1189=DIRECTION('',(1.0,-0.0,0.0));
#1190=SURFACE_STYLE_FILL_AREA(#1444);
#1191=ORIENTED_EDGE('',*,*,#1256,.F.);
#1192=ORIENTED_EDGE('',*,*,#1445,.F.);
#1193=ORIENTED_EDGE('',*,*,#1258,.T.);
#1194=ORIENTED_EDGE('',*,*,#1289,.T.);
#1195=CARTESIAN_POINT('',(-3.2,3.2,6.07));
#1196=DIRECTION('',(0.0,0.0,1.0));
#1197=DIRECTION('',(-1.0,0.0,0.0));
#1198=SURFACE_STYLE_FILL_AREA(#1446);
#1199=ORIENTED_EDGE('',*,*,#1445,.T.);
#1200=ORIENTED_EDGE('',*,*,#1255,.T.);
#1201=CARTESIAN_POINT('',(-3.2,3.2,6.07));
#1202=DIRECTION('',(0.0,0.0,1.0));
#1203=DIRECTION('',(1.0,-0.0,0.0));
#1204=SURFACE_STYLE_FILL_AREA(#1447);
#1205=ORIENTED_EDGE('',*,*,#1251,.F.);
#1206=ORIENTED_EDGE('',*,*,#1448,.F.);
#1207=ORIENTED_EDGE('',*,*,#1253,.T.);
#1208=ORIENTED_EDGE('',*,*,#1282,.T.);
#1209=CARTESIAN_POINT('',(-3.2,-3.2,6.07));
#1210=DIRECTION('',(0.0,0.0,1.0));
#1211=DIRECTION('',(-1.0,0.0,0.0));
#1212=SURFACE_STYLE_FILL_AREA(#1449);
#1213=ORIENTED_EDGE('',*,*,#1448,.T.);
#1214=ORIENTED_EDGE('',*,*,#1250,.T.);
#1215=CARTESIAN_POINT('',(-3.2,-3.2,6.07));
#1216=DIRECTION('',(0.0,0.0,1.0));
#1217=DIRECTION('',(1.0,-0.0,0.0));
#1218=SURFACE_STYLE_FILL_AREA(#1450);
#1219=ORIENTED_EDGE('',*,*,#1246,.F.);
#1220=ORIENTED_EDGE('',*,*,#1451,.F.);
#1221=ORIENTED_EDGE('',*,*,#1248,.T.);
#1222=ORIENTED_EDGE('',*,*,#1275,.T.);
#1223=CARTESIAN_POINT('',(3.2,-3.2,6.07));
#1224=DIRECTION('',(0.0,0.0,1.0));
#1225=DIRECTION('',(-1.0,0.0,0.0));
#1226=SURFACE_STYLE_FILL_AREA(#1452);
#1227=ORIENTED_EDGE('',*,*,#1451,.T.);
#1228=ORIENTED_EDGE('',*,*,#1245,.T.);
#1229=CARTESIAN_POINT('',(3.2,-3.2,6.07));
#1230=DIRECTION('',(0.0,0.0,1.0));
#1231=DIRECTION('',(1.0,-0.0,0.0));
#1232=SURFACE_STYLE_FILL_AREA(#1453);
#1233=FILL_AREA_STYLE('',(#1454));
#1234=EDGE_CURVE('NONE',#1455,#1456,#1457,.T.);
#1235=EDGE_CURVE('NONE',#1456,#1458,#1459,.T.);
#1236=EDGE_CURVE('NONE',#1460,#1458,#1461,.T.);
#1237=EDGE_CURVE('NONE',#1455,#1460,#1462,.T.);
#1238=FILL_AREA_STYLE('',(#1463));
#1239=EDGE_CURVE('NONE',#1456,#1455,#1464,.T.);
#1240=EDGE_CURVE('NONE',#1458,#1460,#1465,.T.);
#1241=FILL_AREA_STYLE('',(#1466));
#1242=FILL_AREA_STYLE('',(#1467));
#1243=FILL_AREA_STYLE('',(#1468));
#1244=FILL_AREA_STYLE('',(#1469));
#1245=EDGE_CURVE('NONE',#1470,#1471,#1472,.T.);
#1246=EDGE_CURVE('NONE',#1470,#1473,#1474,.T.);
#1247=EDGE_CURVE('NONE',#1473,#1475,#1476,.T.);
#1248=EDGE_CURVE('NONE',#1471,#1475,#1477,.T.);
#1249=FILL_AREA_STYLE('',(#1478));
#1250=EDGE_CURVE('NONE',#1479,#1480,#1481,.T.);
#1251=EDGE_CURVE('NONE',#1479,#1482,#1483,.T.);
#1252=EDGE_CURVE('NONE',#1482,#1484,#1485,.T.);
#1253=EDGE_CURVE('NONE',#1480,#1484,#1486,.T.);
#1254=FILL_AREA_STYLE('',(#1487));
#1255=EDGE_CURVE('NONE',#1488,#1489,#1490,.T.);
#1256=EDGE_CURVE('NONE',#1488,#1491,#1492,.T.);
#1257=EDGE_CURVE('NONE',#1491,#1493,#1494,.T.);
#1258=EDGE_CURVE('NONE',#1489,#1493,#1495,.T.);
#1259=FILL_AREA_STYLE('',(#1496));
#1260=EDGE_CURVE('NONE',#1497,#1498,#1499,.T.);
#1261=EDGE_CURVE('NONE',#1497,#1500,#1501,.T.);
#1262=EDGE_CURVE('NONE',#1500,#1502,#1503,.T.);
#1263=EDGE_CURVE('NONE',#1498,#1502,#1504,.T.);
#1264=FILL_AREA_STYLE('',(#1505));
#1265=EDGE_CURVE('NONE',#1506,#1507,#1508,.T.);
#1266=EDGE_CURVE('NONE',#1506,#1509,#1510,.T.);
#1267=EDGE_CURVE('NONE',#1509,#1511,#1512,.T.);
#1268=EDGE_CURVE('NONE',#1507,#1511,#1513,.T.);
#1269=FILL_AREA_STYLE('',(#1514));
#1270=EDGE_CURVE('NONE',#1515,#1516,#1517,.T.);
#1271=EDGE_CURVE('NONE',#1516,#1518,#1519,.T.);
#1272=EDGE_CURVE('NONE',#1518,#1520,#1521,.T.);
#1273=EDGE_CURVE('NONE',#1520,#1522,#1523,.T.);
#1274=EDGE_CURVE('NONE',#1522,#1515,#1524,.T.);
#1275=EDGE_CURVE('NONE',#1475,#1473,#1525,.T.);
#1276=FILL_AREA_STYLE('',(#1526));
#1277=EDGE_CURVE('NONE',#1527,#1528,#1529,.T.);
#1278=EDGE_CURVE('NONE',#1528,#1530,#1531,.T.);
#1279=EDGE_CURVE('NONE',#1530,#1532,#1533,.T.);
#1280=EDGE_CURVE('NONE',#1532,#1534,#1535,.T.);
#1281=EDGE_CURVE('NONE',#1534,#1527,#1536,.T.);
#1282=EDGE_CURVE('NONE',#1484,#1482,#1537,.T.);
#1283=FILL_AREA_STYLE('',(#1538));
#1284=EDGE_CURVE('NONE',#1539,#1540,#1541,.T.);
#1285=EDGE_CURVE('NONE',#1540,#1542,#1543,.T.);
#1286=EDGE_CURVE('NONE',#1542,#1544,#1545,.T.);
#1287=EDGE_CURVE('NONE',#1544,#1546,#1547,.T.);
#1288=EDGE_CURVE('NONE',#1546,#1539,#1548,.T.);
#1289=EDGE_CURVE('NONE',#1493,#1491,#1549,.T.);
#1290=FILL_AREA_STYLE('',(#1550));
#1291=EDGE_CURVE('NONE',#1551,#1552,#1553,.T.);
#1292=EDGE_CURVE('NONE',#1552,#1554,#1555,.T.);
#1293=EDGE_CURVE('NONE',#1554,#1556,#1557,.T.);
#1294=EDGE_CURVE('NONE',#1556,#1558,#1559,.T.);
#1295=EDGE_CURVE('NONE',#1558,#1551,#1560,.T.);
#1296=EDGE_CURVE('NONE',#1502,#1500,#1561,.T.);
#1297=FILL_AREA_STYLE('',(#1562));
#1298=EDGE_CURVE('NONE',#1563,#1564,#1565,.T.);
#1299=EDGE_CURVE('NONE',#1566,#1564,#1567,.T.);
#1300=EDGE_CURVE('NONE',#1568,#1566,#1569,.T.);
#1301=EDGE_CURVE('NONE',#1568,#1563,#1570,.T.);
#1302=EDGE_CURVE('NONE',#1571,#1572,#1573,.T.);
#1303=EDGE_CURVE('NONE',#1574,#1571,#1575,.T.);
#1304=EDGE_CURVE('NONE',#1576,#1574,#1577,.T.);
#1305=EDGE_CURVE('NONE',#1572,#1576,#1578,.T.);
#1306=FILL_AREA_STYLE('',(#1579));
#1307=EDGE_CURVE('NONE',#1580,#1581,#1582,.T.);
#1308=EDGE_CURVE('NONE',#1583,#1581,#1584,.T.);
#1309=EDGE_CURVE('NONE',#1585,#1583,#1586,.T.);
#1310=EDGE_CURVE('NONE',#1585,#1580,#1587,.T.);
#1311=EDGE_CURVE('NONE',#1588,#1589,#1590,.T.);
#1312=EDGE_CURVE('NONE',#1591,#1588,#1592,.T.);
#1313=EDGE_CURVE('NONE',#1593,#1591,#1594,.T.);
#1314=EDGE_CURVE('NONE',#1589,#1593,#1595,.T.);
#1315=FILL_AREA_STYLE('',(#1596));
#1316=EDGE_CURVE('NONE',#1597,#1598,#1599,.T.);
#1317=EDGE_CURVE('NONE',#1600,#1597,#1601,.T.);
#1318=EDGE_CURVE('NONE',#1602,#1600,#1603,.T.);
#1319=EDGE_CURVE('NONE',#1602,#1598,#1604,.T.);
#1320=FILL_AREA_STYLE('',(#1605));
#1321=EDGE_CURVE('NONE',#1606,#1607,#1608,.T.);
#1322=EDGE_CURVE('NONE',#1609,#1606,#1610,.T.);
#1323=EDGE_CURVE('NONE',#1611,#1609,#1612,.T.);
#1324=EDGE_CURVE('NONE',#1611,#1607,#1613,.T.);
#1325=FILL_AREA_STYLE('',(#1614));
#1326=EDGE_CURVE('NONE',#1615,#1616,#1617,.T.);
#1327=EDGE_CURVE('NONE',#1618,#1615,#1619,.T.);
#1328=EDGE_CURVE('NONE',#1620,#1618,#1621,.T.);
#1329=EDGE_CURVE('NONE',#1620,#1616,#1622,.T.);
#1330=FILL_AREA_STYLE('',(#1623));
#1331=EDGE_CURVE('NONE',#1564,#1624,#1625,.T.);
#1332=EDGE_CURVE('NONE',#1528,#1563,#1626,.T.);
#1333=EDGE_CURVE('NONE',#1527,#1607,#1627,.T.);
#1334=EDGE_CURVE('NONE',#1540,#1611,#1628,.T.);
#1335=EDGE_CURVE('NONE',#1539,#1629,#1630,.T.);
#1336=EDGE_CURVE('NONE',#1629,#1624,#1631,.T.);
#1337=FILL_AREA_STYLE('',(#1632));
#1338=EDGE_CURVE('NONE',#1583,#1633,#1634,.T.);
#1339=EDGE_CURVE('NONE',#1515,#1581,#1635,.T.);
#1340=EDGE_CURVE('NONE',#1522,#1598,#1636,.T.);
#1341=EDGE_CURVE('NONE',#1530,#1602,#1637,.T.);
#1342=EDGE_CURVE('NONE',#1638,#1568,#1639,.T.);
#1343=EDGE_CURVE('NONE',#1638,#1633,#1640,.T.);
#1344=FILL_AREA_STYLE('',(#1641));
#1345=EDGE_CURVE('NONE',#1642,#1580,#1643,.T.);
#1346=EDGE_CURVE('NONE',#1642,#1644,#1645,.T.);
#1347=EDGE_CURVE('NONE',#1558,#1644,#1646,.T.);
#1348=EDGE_CURVE('NONE',#1556,#1647,#1648,.T.);
#1349=EDGE_CURVE('NONE',#1649,#1647,#1650,.T.);
#1350=EDGE_CURVE('NONE',#1516,#1649,#1651,.T.);
#1351=FILL_AREA_STYLE('',(#1652));
#1352=EDGE_CURVE('NONE',#1546,#1616,#1653,.T.);
#1353=EDGE_CURVE('NONE',#1551,#1620,#1654,.T.);
#1354=EDGE_CURVE('NONE',#1644,#1629,#1655,.T.);
#1355=FILL_AREA_STYLE('',(#1656));
#1356=EDGE_CURVE('NONE',#1657,#1642,#1658,.T.);
#1357=EDGE_CURVE('NONE',#1633,#1657,#1659,.T.);
#1358=EDGE_CURVE('NONE',#1660,#1638,#1661,.T.);
#1359=EDGE_CURVE('NONE',#1660,#1624,#1662,.T.);
#1360=FILL_AREA_STYLE('',(#1663));
#1361=EDGE_CURVE('NONE',#1649,#1664,#1665,.T.);
#1362=EDGE_CURVE('NONE',#1666,#1647,#1667,.T.);
#1363=EDGE_CURVE('NONE',#1664,#1666,#1668,.T.);
#1364=FILL_AREA_STYLE('',(#1669));
#1365=EDGE_CURVE('NONE',#1615,#1670,#1671,.T.);
#1366=EDGE_CURVE('NONE',#1672,#1670,#1673,.T.);
#1367=EDGE_CURVE('NONE',#1618,#1672,#1674,.T.);
#1368=FILL_AREA_STYLE('',(#1675));
#1369=EDGE_CURVE('NONE',#1664,#1676,#1677,.T.);
#1370=EDGE_CURVE('NONE',#1666,#1678,#1679,.T.);
#1371=EDGE_CURVE('NONE',#1676,#1678,#1680,.T.);
#1372=FILL_AREA_STYLE('',(#1681));
#1373=EDGE_CURVE('NONE',#1597,#1682,#1683,.T.);
#1374=EDGE_CURVE('NONE',#1684,#1682,#1685,.T.);
#1375=EDGE_CURVE('NONE',#1600,#1684,#1686,.T.);
#1376=FILL_AREA_STYLE('',(#1687));
#1377=EDGE_CURVE('NONE',#1606,#1688,#1689,.T.);
#1378=EDGE_CURVE('NONE',#1690,#1688,#1691,.T.);
#1379=EDGE_CURVE('NONE',#1609,#1690,#1692,.T.);
#1380=FILL_AREA_STYLE('',(#1693));
#1381=EDGE_CURVE('NONE',#1676,#1682,#1694,.T.);
#1382=EDGE_CURVE('NONE',#1672,#1678,#1695,.T.);
#1383=EDGE_CURVE('NONE',#1690,#1670,#1696,.T.);
#1384=EDGE_CURVE('NONE',#1684,#1688,#1697,.T.);
#1385=EDGE_CURVE('NONE',#1511,#1509,#1698,.T.);
#1386=FILL_AREA_STYLE('',(#1699));
#1387=EDGE_CURVE('NONE',#1552,#1618,#1700,.T.);
#1388=FILL_AREA_STYLE('',(#1701));
#1389=EDGE_CURVE('NONE',#1554,#1666,#1702,.T.);
#1390=FILL_AREA_STYLE('',(#1703));
#1391=FILL_AREA_STYLE('',(#1704));
#1392=EDGE_CURVE('NONE',#1544,#1615,#1705,.T.);
#1393=FILL_AREA_STYLE('',(#1706));
#1394=EDGE_CURVE('NONE',#1542,#1609,#1707,.T.);
#1395=FILL_AREA_STYLE('',(#1708));
#1396=FILL_AREA_STYLE('',(#1709));
#1397=EDGE_CURVE('NONE',#1534,#1606,#1710,.T.);
#1398=FILL_AREA_STYLE('',(#1711));
#1399=EDGE_CURVE('NONE',#1532,#1600,#1712,.T.);
#1400=FILL_AREA_STYLE('',(#1713));
#1401=FILL_AREA_STYLE('',(#1714));
#1402=EDGE_CURVE('NONE',#1520,#1597,#1715,.T.);
#1403=FILL_AREA_STYLE('',(#1716));
#1404=EDGE_CURVE('NONE',#1518,#1664,#1717,.T.);
#1405=FILL_AREA_STYLE('',(#1718));
#1406=FILL_AREA_STYLE('',(#1719));
#1407=EDGE_CURVE('NONE',#1566,#1660,#1720,.T.);
#1408=FILL_AREA_STYLE('',(#1721));
#1409=FILL_AREA_STYLE('',(#1722));
#1410=EDGE_CURVE('NONE',#1507,#1506,#1723,.T.);
#1411=FILL_AREA_STYLE('',(#1724));
#1412=FILL_AREA_STYLE('',(#1725));
#1413=EDGE_CURVE('NONE',#1657,#1585,#1726,.T.);
#1414=FILL_AREA_STYLE('',(#1727));
#1415=FILL_AREA_STYLE('',(#1728));
#1416=EDGE_CURVE('NONE',#1729,#1589,#1730,.T.);
#1417=EDGE_CURVE('NONE',#1731,#1729,#1732,.T.);
#1418=EDGE_CURVE('NONE',#1731,#1588,#1733,.T.);
#1419=FILL_AREA_STYLE('',(#1734));
#1420=EDGE_CURVE('NONE',#1735,#1593,#1736,.T.);
#1421=EDGE_CURVE('NONE',#1729,#1735,#1737,.T.);
#1422=FILL_AREA_STYLE('',(#1738));
#1423=EDGE_CURVE('NONE',#1739,#1591,#1740,.T.);
#1424=EDGE_CURVE('NONE',#1735,#1739,#1741,.T.);
#1425=FILL_AREA_STYLE('',(#1742));
#1426=EDGE_CURVE('NONE',#1739,#1731,#1743,.T.);
#1427=FILL_AREA_STYLE('',(#1744));
#1428=FILL_AREA_STYLE('',(#1745));
#1429=EDGE_CURVE('NONE',#1746,#1572,#1747,.T.);
#1430=EDGE_CURVE('NONE',#1748,#1746,#1749,.T.);
#1431=EDGE_CURVE('NONE',#1748,#1571,#1750,.T.);
#1432=FILL_AREA_STYLE('',(#1751));
#1433=EDGE_CURVE('NONE',#1752,#1576,#1753,.T.);
#1434=EDGE_CURVE('NONE',#1746,#1752,#1754,.T.);
#1435=FILL_AREA_STYLE('',(#1755));
#1436=EDGE_CURVE('NONE',#1756,#1574,#1757,.T.);
#1437=EDGE_CURVE('NONE',#1752,#1756,#1758,.T.);
#1438=FILL_AREA_STYLE('',(#1759));
#1439=EDGE_CURVE('NONE',#1756,#1748,#1760,.T.);
#1440=FILL_AREA_STYLE('',(#1761));
#1441=FILL_AREA_STYLE('',(#1762));
#1442=EDGE_CURVE('NONE',#1498,#1497,#1763,.T.);
#1443=FILL_AREA_STYLE('',(#1764));
#1444=FILL_AREA_STYLE('',(#1765));
#1445=EDGE_CURVE('NONE',#1489,#1488,#1766,.T.);
#1446=FILL_AREA_STYLE('',(#1767));
#1447=FILL_AREA_STYLE('',(#1768));
#1448=EDGE_CURVE('NONE',#1480,#1479,#1769,.T.);
#1449=FILL_AREA_STYLE('',(#1770));
#1450=FILL_AREA_STYLE('',(#1771));
#1451=EDGE_CURVE('NONE',#1471,#1470,#1772,.T.);
#1452=FILL_AREA_STYLE('',(#1773));
#1453=FILL_AREA_STYLE('',(#1774));
#1454=FILL_AREA_STYLE_COLOUR('',#1775);
#1455=VERTEX_POINT('NONE',#1776);
#1456=VERTEX_POINT('NONE',#1777);
#1457=CIRCLE('',#1778,1.9);
#1458=VERTEX_POINT('NONE',#1779);
#1459=LINE('',#1780,#1781);
#1460=VERTEX_POINT('NONE',#1782);
#1461=CIRCLE('',#1783,1.9);
#1462=LINE('',#1784,#1785);
#1463=FILL_AREA_STYLE_COLOUR('',#1786);
#1464=CIRCLE('',#1787,1.9);
#1465=CIRCLE('',#1788,1.9);
#1466=FILL_AREA_STYLE_COLOUR('',#1789);
#1467=FILL_AREA_STYLE_COLOUR('',#1790);
#1468=FILL_AREA_STYLE_COLOUR('',#1791);
#1469=FILL_AREA_STYLE_COLOUR('',#1792);
#1470=VERTEX_POINT('NONE',#1793);
#1471=VERTEX_POINT('NONE',#1794);
#1472=CIRCLE('',#1795,0.5);
#1473=VERTEX_POINT('NONE',#1796);
#1474=LINE('',#1797,#1798);
#1475=VERTEX_POINT('NONE',#1799);
#1476=CIRCLE('',#1800,0.5);
#1477=LINE('',#1801,#1802);
#1478=FILL_AREA_STYLE_COLOUR('',#1803);
#1479=VERTEX_POINT('NONE',#1804);
#1480=VERTEX_POINT('NONE',#1805);
#1481=CIRCLE('',#1806,0.5);
#1482=VERTEX_POINT('NONE',#1807);
#1483=LINE('',#1808,#1809);
#1484=VERTEX_POINT('NONE',#1810);
#1485=CIRCLE('',#1811,0.5);
#1486=LINE('',#1812,#1813);
#1487=FILL_AREA_STYLE_COLOUR('',#1814);
#1488=VERTEX_POINT('NONE',#1815);
#1489=VERTEX_POINT('NONE',#1816);
#1490=CIRCLE('',#1817,0.5);
#1491=VERTEX_POINT('NONE',#1818);
#1492=LINE('',#1819,#1820);
#1493=VERTEX_POINT('NONE',#1821);
#1494=CIRCLE('',#1822,0.5);
#1495=LINE('',#1823,#1824);
#1496=FILL_AREA_STYLE_COLOUR('',#1825);
#1497=VERTEX_POINT('NONE',#1826);
#1498=VERTEX_POINT('NONE',#1827);
#1499=CIRCLE('',#1828,0.5);
#1500=VERTEX_POINT('NONE',#1829);
#1501=LINE('',#1830,#1831);
#1502=VERTEX_POINT('NONE',#1832);
#1503=CIRCLE('',#1833,0.5);
#1504=LINE('',#1834,#1835);
#1505=FILL_AREA_STYLE_COLOUR('',#1836);
#1506=VERTEX_POINT('NONE',#1837);
#1507=VERTEX_POINT('NONE',#1838);
#1508=CIRCLE('',#1839,1.9);
#1509=VERTEX_POINT('NONE',#1840);
#1510=LINE('',#1841,#1842);
#1511=VERTEX_POINT('NONE',#1843);
#1512=CIRCLE('',#1844,1.9);
#1513=LINE('',#1845,#1846);
#1514=FILL_AREA_STYLE_COLOUR('',#1847);
#1515=VERTEX_POINT('NONE',#1848);
#1516=VERTEX_POINT('NONE',#1849);
#1517=LINE('',#1850,#1851);
#1518=VERTEX_POINT('NONE',#1852);
#1519=LINE('',#1853,#1854);
#1520=VERTEX_POINT('NONE',#1855);
#1521=CIRCLE('',#1856,0.8);
#1522=VERTEX_POINT('NONE',#1857);
#1523=LINE('',#1858,#1859);
#1524=LINE('',#1860,#1861);
#1525=CIRCLE('',#1862,0.5);
#1526=FILL_AREA_STYLE_COLOUR('',#1863);
#1527=VERTEX_POINT('NONE',#1864);
#1528=VERTEX_POINT('NONE',#1865);
#1529=LINE('',#1866,#1867);
#1530=VERTEX_POINT('NONE',#1868);
#1531=LINE('',#1869,#1870);
#1532=VERTEX_POINT('NONE',#1871);
#1533=LINE('',#1872,#1873);
#1534=VERTEX_POINT('NONE',#1874);
#1535=CIRCLE('',#1875,0.8);
#1536=LINE('',#1876,#1877);
#1537=CIRCLE('',#1878,0.5);
#1538=FILL_AREA_STYLE_COLOUR('',#1879);
#1539=VERTEX_POINT('NONE',#1880);
#1540=VERTEX_POINT('NONE',#1881);
#1541=LINE('',#1882,#1883);
#1542=VERTEX_POINT('NONE',#1884);
#1543=LINE('',#1885,#1886);
#1544=VERTEX_POINT('NONE',#1887);
#1545=CIRCLE('',#1888,0.8);
#1546=VERTEX_POINT('NONE',#1889);
#1547=LINE('',#1890,#1891);
#1548=LINE('',#1892,#1893);
#1549=CIRCLE('',#1894,0.5);
#1550=FILL_AREA_STYLE_COLOUR('',#1895);
#1551=VERTEX_POINT('NONE',#1896);
#1552=VERTEX_POINT('NONE',#1897);
#1553=LINE('',#1898,#1899);
#1554=VERTEX_POINT('NONE',#1900);
#1555=CIRCLE('',#1901,0.8);
#1556=VERTEX_POINT('NONE',#1902);
#1557=LINE('',#1903,#1904);
#1558=VERTEX_POINT('NONE',#1905);
#1559=LINE('',#1906,#1907);
#1560=LINE('',#1908,#1909);
#1561=CIRCLE('',#1910,0.5);
#1562=FILL_AREA_STYLE_COLOUR('',#1911);
#1563=VERTEX_POINT('NONE',#1912);
#1564=VERTEX_POINT('NONE',#1913);
#1565=LINE('',#1914,#1915);
#1566=VERTEX_POINT('NONE',#1916);
#1567=LINE('',#1917,#1918);
#1568=VERTEX_POINT('NONE',#1919);
#1569=LINE('',#1920,#1921);
#1570=LINE('',#1922,#1923);
#1571=VERTEX_POINT('NONE',#1924);
#1572=VERTEX_POINT('NONE',#1925);
#1573=LINE('',#1926,#1927);
#1574=VERTEX_POINT('NONE',#1928);
#1575=LINE('',#1929,#1930);
#1576=VERTEX_POINT('NONE',#1931);
#1577=LINE('',#1932,#1933);
#1578=LINE('',#1934,#1935);
#1579=FILL_AREA_STYLE_COLOUR('',#1936);
#1580=VERTEX_POINT('NONE',#1937);
#1581=VERTEX_POINT('NONE',#1938);
#1582=LINE('',#1939,#1940);
#1583=VERTEX_POINT('NONE',#1941);
#1584=LINE('',#1942,#1943);
#1585=VERTEX_POINT('NONE',#1944);
#1586=LINE('',#1945,#1946);
#1587=LINE('',#1947,#1948);
#1588=VERTEX_POINT('NONE',#1949);
#1589=VERTEX_POINT('NONE',#1950);
#1590=LINE('',#1951,#1952);
#1591=VERTEX_POINT('NONE',#1953);
#1592=LINE('',#1954,#1955);
#1593=VERTEX_POINT('NONE',#1956);
#1594=LINE('',#1957,#1958);
#1595=LINE('',#1959,#1960);
#1596=FILL_AREA_STYLE_COLOUR('',#1961);
#1597=VERTEX_POINT('NONE',#1962);
#1598=VERTEX_POINT('NONE',#1963);
#1599=LINE('',#1964,#1965);
#1600=VERTEX_POINT('NONE',#1966);
#1601=LINE('',#1967,#1968);
#1602=VERTEX_POINT('NONE',#1969);
#1603=LINE('',#1970,#1971);
#1604=LINE('',#1972,#1973);
#1605=FILL_AREA_STYLE_COLOUR('',#1974);
#1606=VERTEX_POINT('NONE',#1975);
#1607=VERTEX_POINT('NONE',#1976);
#1608=LINE('',#1977,#1978);
#1609=VERTEX_POINT('NONE',#1979);
#1610=LINE('',#1980,#1981);
#1611=VERTEX_POINT('NONE',#1982);
#1612=LINE('',#1983,#1984);
#1613=LINE('',#1985,#1986);
#1614=FILL_AREA_STYLE_COLOUR('',#1987);
#1615=VERTEX_POINT('NONE',#1988);
#1616=VERTEX_POINT('NONE',#1989);
#1617=LINE('',#1990,#1991);
#1618=VERTEX_POINT('NONE',#1992);
#1619=LINE('',#1993,#1994);
#1620=VERTEX_POINT('NONE',#1995);
#1621=LINE('',#1996,#1997);
#1622=LINE('',#1998,#1999);
#1623=FILL_AREA_STYLE_COLOUR('',#2000);
#1624=VERTEX_POINT('NONE',#2001);
#1625=LINE('',#2002,#2003);
#1626=LINE('',#2004,#2005);
#1627=LINE('',#2006,#2007);
#1628=LINE('',#2008,#2009);
#1629=VERTEX_POINT('NONE',#2010);
#1630=LINE('',#2011,#2012);
#1631=LINE('',#2013,#2014);
#1632=FILL_AREA_STYLE_COLOUR('',#2015);
#1633=VERTEX_POINT('NONE',#2016);
#1634=LINE('',#2017,#2018);
#1635=LINE('',#2019,#2020);
#1636=LINE('',#2021,#2022);
#1637=LINE('',#2023,#2024);
#1638=VERTEX_POINT('NONE',#2025);
#1639=LINE('',#2026,#2027);
#1640=LINE('',#2028,#2029);
#1641=FILL_AREA_STYLE_COLOUR('',#2030);
#1642=VERTEX_POINT('NONE',#2031);
#1643=LINE('',#2032,#2033);
#1644=VERTEX_POINT('NONE',#2034);
#1645=LINE('',#2035,#2036);
#1646=LINE('',#2037,#2038);
#1647=VERTEX_POINT('NONE',#2039);
#1648=LINE('',#2040,#2041);
#1649=VERTEX_POINT('NONE',#2042);
#1650=LINE('',#2043,#2044);
#1651=LINE('',#2045,#2046);
#1652=FILL_AREA_STYLE_COLOUR('',#2047);
#1653=LINE('',#2048,#2049);
#1654=LINE('',#2050,#2051);
#1655=LINE('',#2052,#2053);
#1656=FILL_AREA_STYLE_COLOUR('',#2054);
#1657=VERTEX_POINT('NONE',#2055);
#1658=LINE('',#2056,#2057);
#1659=LINE('',#2058,#2059);
#1660=VERTEX_POINT('NONE',#2060);
#1661=LINE('',#2061,#2062);
#1662=LINE('',#2063,#2064);
#1663=FILL_AREA_STYLE_COLOUR('',#2065);
#1664=VERTEX_POINT('NONE',#2066);
#1665=LINE('',#2067,#2068);
#1666=VERTEX_POINT('NONE',#2069);
#1667=LINE('',#2070,#2071);
#1668=LINE('',#2072,#2073);
#1669=FILL_AREA_STYLE_COLOUR('',#2074);
#1670=VERTEX_POINT('NONE',#2075);
#1671=LINE('',#2076,#2077);
#1672=VERTEX_POINT('NONE',#2078);
#1673=LINE('',#2079,#2080);
#1674=LINE('',#2081,#2082);
#1675=FILL_AREA_STYLE_COLOUR('',#2083);
#1676=VERTEX_POINT('NONE',#2084);
#1677=LINE('',#2085,#2086);
#1678=VERTEX_POINT('NONE',#2087);
#1679=LINE('',#2088,#2089);
#1680=LINE('',#2090,#2091);
#1681=FILL_AREA_STYLE_COLOUR('',#2092);
#1682=VERTEX_POINT('NONE',#2093);
#1683=LINE('',#2094,#2095);
#1684=VERTEX_POINT('NONE',#2096);
#1685=LINE('',#2097,#2098);
#1686=LINE('',#2099,#2100);
#1687=FILL_AREA_STYLE_COLOUR('',#2101);
#1688=VERTEX_POINT('NONE',#2102);
#1689=LINE('',#2103,#2104);
#1690=VERTEX_POINT('NONE',#2105);
#1691=LINE('',#2106,#2107);
#1692=LINE('',#2108,#2109);
#1693=FILL_AREA_STYLE_COLOUR('',#2110);
#1694=CIRCLE('',#2111,0.8);
#1695=CIRCLE('',#2112,0.8);
#1696=CIRCLE('',#2113,0.8);
#1697=CIRCLE('',#2114,0.8);
#1698=CIRCLE('',#2115,1.9);
#1699=FILL_AREA_STYLE_COLOUR('',#2116);
#1700=LINE('',#2117,#2118);
#1701=FILL_AREA_STYLE_COLOUR('',#2119);
#1702=LINE('',#2120,#2121);
#1703=FILL_AREA_STYLE_COLOUR('',#2122);
#1704=FILL_AREA_STYLE_COLOUR('',#2123);
#1705=LINE('',#2124,#2125);
#1706=FILL_AREA_STYLE_COLOUR('',#2126);
#1707=LINE('',#2127,#2128);
#1708=FILL_AREA_STYLE_COLOUR('',#2129);
#1709=FILL_AREA_STYLE_COLOUR('',#2130);
#1710=LINE('',#2131,#2132);
#1711=FILL_AREA_STYLE_COLOUR('',#2133);
#1712=LINE('',#2134,#2135);
#1713=FILL_AREA_STYLE_COLOUR('',#2136);
#1714=FILL_AREA_STYLE_COLOUR('',#2137);
#1715=LINE('',#2138,#2139);
#1716=FILL_AREA_STYLE_COLOUR('',#2140);
#1717=LINE('',#2141,#2142);
#1718=FILL_AREA_STYLE_COLOUR('',#2143);
#1719=FILL_AREA_STYLE_COLOUR('',#2144);
#1720=LINE('',#2145,#2146);
#1721=FILL_AREA_STYLE_COLOUR('',#2147);
#1722=FILL_AREA_STYLE_COLOUR('',#2148);
#1723=CIRCLE('',#2149,1.9);
#1724=FILL_AREA_STYLE_COLOUR('',#2150);
#1725=FILL_AREA_STYLE_COLOUR('',#2151);
#1726=LINE('',#2152,#2153);
#1727=FILL_AREA_STYLE_COLOUR('',#2154);
#1728=FILL_AREA_STYLE_COLOUR('',#2155);
#1729=VERTEX_POINT('NONE',#2156);
#1730=LINE('',#2157,#2158);
#1731=VERTEX_POINT('NONE',#2159);
#1732=LINE('',#2160,#2161);
#1733=LINE('',#2162,#2163);
#1734=FILL_AREA_STYLE_COLOUR('',#2164);
#1735=VERTEX_POINT('NONE',#2165);
#1736=LINE('',#2166,#2167);
#1737=LINE('',#2168,#2169);
#1738=FILL_AREA_STYLE_COLOUR('',#2170);
#1739=VERTEX_POINT('NONE',#2171);
#1740=LINE('',#2172,#2173);
#1741=LINE('',#2174,#2175);
#1742=FILL_AREA_STYLE_COLOUR('',#2176);
#1743=LINE('',#2177,#2178);
#1744=FILL_AREA_STYLE_COLOUR('',#2179);
#1745=FILL_AREA_STYLE_COLOUR('',#2180);
#1746=VERTEX_POINT('NONE',#2181);
#1747=LINE('',#2182,#2183);
#1748=VERTEX_POINT('NONE',#2184);
#1749=LINE('',#2185,#2186);
#1750=LINE('',#2187,#2188);
#1751=FILL_AREA_STYLE_COLOUR('',#2189);
#1752=VERTEX_POINT('NONE',#2190);
#1753=LINE('',#2191,#2192);
#1754=LINE('',#2193,#2194);
#1755=FILL_AREA_STYLE_COLOUR('',#2195);
#1756=VERTEX_POINT('NONE',#2196);
#1757=LINE('',#2197,#2198);
#1758=LINE('',#2199,#2200);
#1759=FILL_AREA_STYLE_COLOUR('',#2201);
#1760=LINE('',#2202,#2203);
#1761=FILL_AREA_STYLE_COLOUR('',#2204);
#1762=FILL_AREA_STYLE_COLOUR('',#2205);
#1763=CIRCLE('',#2206,0.5);
#1764=FILL_AREA_STYLE_COLOUR('',#2207);
#1765=FILL_AREA_STYLE_COLOUR('',#2208);
#1766=CIRCLE('',#2209,0.5);
#1767=FILL_AREA_STYLE_COLOUR('',#2210);
#1768=FILL_AREA_STYLE_COLOUR('',#2211);
#1769=CIRCLE('',#2212,0.5);
#1770=FILL_AREA_STYLE_COLOUR('',#2213);
#1771=FILL_AREA_STYLE_COLOUR('',#2214);
#1772=CIRCLE('',#2215,0.5);
#1773=FILL_AREA_STYLE_COLOUR('',#2216);
#1774=FILL_AREA_STYLE_COLOUR('',#2217);
#1775=COLOUR_RGB('',0.917647063732147,0.905882358551025,0.768627464771271);
#1776=CARTESIAN_POINT('',(1.9,0.0,8.0));
#1777=CARTESIAN_POINT('',(-1.9,2.32682891837997E-16,8.0));
#1778=AXIS2_PLACEMENT_3D('',#2218,#2219,#2220);
#1779=CARTESIAN_POINT('',(-1.9,2.32682891837997E-16,13.0));
#1780=CARTESIAN_POINT('',(-1.9,2.32682891837997E-16,8.0));
#1781=VECTOR('',#2221,1000.0);
#1782=CARTESIAN_POINT('',(1.9,0.0,13.0));
#1783=AXIS2_PLACEMENT_3D('',#2222,#2223,#2224);
#1784=CARTESIAN_POINT('',(1.9,0.0,8.0));
#1785=VECTOR('',#2225,1000.0);
#1786=COLOUR_RGB('',0.917647063732147,0.905882358551025,0.768627464771271);
#1787=AXIS2_PLACEMENT_3D('',#2226,#2227,#2228);
#1788=AXIS2_PLACEMENT_3D('',#2229,#2230,#2231);
#1789=COLOUR_RGB('',0.917647063732147,0.905882358551025,0.768627464771271);
#1790=COLOUR_RGB('',0.917647063732147,0.905882358551025,0.768627464771271);
#1791=COLOUR_RGB('',0.917647063732147,0.905882358551025,0.768627464771271);
#1792=COLOUR_RGB('',0.0,0.0,0.0);
#1793=CARTESIAN_POINT('',(3.7,-3.2,6.07));
#1794=CARTESIAN_POINT('',(2.7,-3.2,6.07));
#1795=AXIS2_PLACEMENT_3D('',#2232,#2233,#2234);
#1796=CARTESIAN_POINT('',(3.7,-3.2,5.87));
#1797=CARTESIAN_POINT('',(3.7,-3.2,6.07));
#1798=VECTOR('',#2235,1000.0);
#1799=CARTESIAN_POINT('',(2.7,-3.2,5.87));
#1800=AXIS2_PLACEMENT_3D('',#2236,#2237,#2238);
#1801=CARTESIAN_POINT('',(2.7,-3.2,6.07));
#1802=VECTOR('',#2239,1000.0);
#1803=COLOUR_RGB('',0.0,0.0,0.0);
#1804=CARTESIAN_POINT('',(-2.7,-3.2,6.07));
#1805=CARTESIAN_POINT('',(-3.7,-3.2,6.07));
#1806=AXIS2_PLACEMENT_3D('',#2240,#2241,#2242);
#1807=CARTESIAN_POINT('',(-2.7,-3.2,5.87));
#1808=CARTESIAN_POINT('',(-2.7,-3.2,6.07));
#1809=VECTOR('',#2243,1000.0);
#1810=CARTESIAN_POINT('',(-3.7,-3.2,5.87));
#1811=AXIS2_PLACEMENT_3D('',#2244,#2245,#2246);
#1812=CARTESIAN_POINT('',(-3.7,-3.2,6.07));
#1813=VECTOR('',#2247,1000.0);
#1814=COLOUR_RGB('',0.0,0.0,0.0);
#1815=CARTESIAN_POINT('',(-2.7,3.2,6.07));
#1816=CARTESIAN_POINT('',(-3.7,3.2,6.07));
#1817=AXIS2_PLACEMENT_3D('',#2248,#2249,#2250);
#1818=CARTESIAN_POINT('',(-2.7,3.2,5.87));
#1819=CARTESIAN_POINT('',(-2.7,3.2,6.07));
#1820=VECTOR('',#2251,1000.0);
#1821=CARTESIAN_POINT('',(-3.7,3.2,5.87));
#1822=AXIS2_PLACEMENT_3D('',#2252,#2253,#2254);
#1823=CARTESIAN_POINT('',(-3.7,3.2,6.07));
#1824=VECTOR('',#2255,1000.0);
#1825=COLOUR_RGB('',0.0,0.0,0.0);
#1826=CARTESIAN_POINT('',(3.7,3.2,6.07));
#1827=CARTESIAN_POINT('',(2.7,3.2,6.07));
#1828=AXIS2_PLACEMENT_3D('',#2256,#2257,#2258);
#1829=CARTESIAN_POINT('',(3.7,3.2,5.87));
#1830=CARTESIAN_POINT('',(3.7,3.2,6.07));
#1831=VECTOR('',#2259,1000.0);
#1832=CARTESIAN_POINT('',(2.7,3.2,5.87));
#1833=AXIS2_PLACEMENT_3D('',#2260,#2261,#2262);
#1834=CARTESIAN_POINT('',(2.7,3.2,6.07));
#1835=VECTOR('',#2263,1000.0);
#1836=COLOUR_RGB('',0.0,0.0,0.0);
#1837=CARTESIAN_POINT('',(-1.9,2.32682891837997E-16,7.5));
#1838=CARTESIAN_POINT('',(1.9,0.0,7.5));
#1839=AXIS2_PLACEMENT_3D('',#2264,#2265,#2266);
#1840=CARTESIAN_POINT('',(-1.9,2.32682891837997E-16,9.0));
#1841=CARTESIAN_POINT('',(-1.9,2.32682891837997E-16,7.5));
#1842=VECTOR('',#2267,1000.0);
#1843=CARTESIAN_POINT('',(1.9,0.0,9.0));
#1844=AXIS2_PLACEMENT_3D('',#2268,#2269,#2270);
#1845=CARTESIAN_POINT('',(1.9,0.0,7.5));
#1846=VECTOR('',#2271,1000.0);
#1847=COLOUR_RGB('',0.0,0.0,0.0);
#1848=CARTESIAN_POINT('',(4.0,-4.0,5.87));
#1849=CARTESIAN_POINT('',(4.0,-2.4,5.87));
#1850=CARTESIAN_POINT('',(4.0,-2.4,5.87));
#1851=VECTOR('',#2272,1000.0);
#1852=CARTESIAN_POINT('',(3.2,-2.4,5.87));
#1853=CARTESIAN_POINT('',(3.2,-2.4,5.87));
#1854=VECTOR('',#2273,1000.0);
#1855=CARTESIAN_POINT('',(2.4,-3.2,5.87));
#1856=AXIS2_PLACEMENT_3D('',#2274,#2275,#2276);
#1857=CARTESIAN_POINT('',(2.4,-4.0,5.87));
#1858=CARTESIAN_POINT('',(2.4,-3.2,5.87));
#1859=VECTOR('',#2277,1000.0);
#1860=CARTESIAN_POINT('',(2.4,-4.0,5.87));
#1861=VECTOR('',#2278,1000.0);
#1862=AXIS2_PLACEMENT_3D('',#2279,#2280,#2281);
#1863=COLOUR_RGB('',0.0,0.0,0.0);
#1864=CARTESIAN_POINT('',(-4.0,-2.4,5.87));
#1865=CARTESIAN_POINT('',(-4.0,-4.0,5.87));
#1866=CARTESIAN_POINT('',(-4.0,-2.4,5.87));
#1867=VECTOR('',#2282,1000.0);
#1868=CARTESIAN_POINT('',(-2.4,-4.0,5.87));
#1869=CARTESIAN_POINT('',(-4.0,-4.0,5.87));
#1870=VECTOR('',#2283,1000.0);
#1871=CARTESIAN_POINT('',(-2.4,-3.2,5.87));
#1872=CARTESIAN_POINT('',(-2.4,-3.2,5.87));
#1873=VECTOR('',#2284,1000.0);
#1874=CARTESIAN_POINT('',(-3.2,-2.4,5.87));
#1875=AXIS2_PLACEMENT_3D('',#2285,#2286,#2287);
#1876=CARTESIAN_POINT('',(-4.0,-2.4,5.87));
#1877=VECTOR('',#2288,1000.0);
#1878=AXIS2_PLACEMENT_3D('',#2289,#2290,#2291);
#1879=COLOUR_RGB('',0.0,0.0,0.0);
#1880=CARTESIAN_POINT('',(-4.0,4.0,5.87));
#1881=CARTESIAN_POINT('',(-4.0,2.4,5.87));
#1882=CARTESIAN_POINT('',(-4.0,4.0,5.87));
#1883=VECTOR('',#2292,1000.0);
#1884=CARTESIAN_POINT('',(-3.2,2.4,5.87));
#1885=CARTESIAN_POINT('',(-4.0,2.4,5.87));
#1886=VECTOR('',#2293,1000.0);
#1887=CARTESIAN_POINT('',(-2.4,3.2,5.87));
#1888=AXIS2_PLACEMENT_3D('',#2294,#2295,#2296);
#1889=CARTESIAN_POINT('',(-2.4,4.0,5.87));
#1890=CARTESIAN_POINT('',(-2.4,4.0,5.87));
#1891=VECTOR('',#2297,1000.0);
#1892=CARTESIAN_POINT('',(-4.0,4.0,5.87));
#1893=VECTOR('',#2298,1000.0);
#1894=AXIS2_PLACEMENT_3D('',#2299,#2300,#2301);
#1895=COLOUR_RGB('',0.0,0.0,0.0);
#1896=CARTESIAN_POINT('',(2.4,4.0,5.87));
#1897=CARTESIAN_POINT('',(2.4,3.2,5.87));
#1898=CARTESIAN_POINT('',(2.4,4.0,5.87));
#1899=VECTOR('',#2302,1000.0);
#1900=CARTESIAN_POINT('',(3.2,2.4,5.87));
#1901=AXIS2_PLACEMENT_3D('',#2303,#2304,#2305);
#1902=CARTESIAN_POINT('',(4.0,2.4,5.87));
#1903=CARTESIAN_POINT('',(3.2,2.4,5.87));
#1904=VECTOR('',#2306,1000.0);
#1905=CARTESIAN_POINT('',(4.0,4.0,5.87));
#1906=CARTESIAN_POINT('',(4.0,4.0,5.87));
#1907=VECTOR('',#2307,1000.0);
#1908=CARTESIAN_POINT('',(2.4,4.0,5.87));
#1909=VECTOR('',#2308,1000.0);
#1910=AXIS2_PLACEMENT_3D('',#2309,#2310,#2311);
#1911=COLOUR_RGB('',0.0,0.0,0.0);
#1912=CARTESIAN_POINT('',(-4.0,-4.0,0.9));
#1913=CARTESIAN_POINT('',(-4.0,0.199999999999998,0.9));
#1914=CARTESIAN_POINT('',(-4.0,-4.0,0.9));
#1915=VECTOR('',#2312,1000.0);
#1916=CARTESIAN_POINT('',(-2.1,0.199999999999998,0.9));
#1917=CARTESIAN_POINT('',(-2.1,0.199999999999998,0.9));
#1918=VECTOR('',#2313,1000.0);
#1919=CARTESIAN_POINT('',(-2.1,-4.0,0.9));
#1920=CARTESIAN_POINT('',(-2.1,-4.0,0.9));
#1921=VECTOR('',#2314,1000.0);
#1922=CARTESIAN_POINT('',(-2.1,-4.0,0.9));
#1923=VECTOR('',#2315,1000.0);
#1924=CARTESIAN_POINT('',(-2.2,-0.149999999999996,0.9));
#1925=CARTESIAN_POINT('',(-2.8,-0.149999999999996,0.9));
#1926=CARTESIAN_POINT('',(-2.8,-0.149999999999996,0.9));
#1927=VECTOR('',#2316,1000.0);
#1928=CARTESIAN_POINT('',(-2.2,0.150000000000004,0.9));
#1929=CARTESIAN_POINT('',(-2.2,-0.149999999999996,0.9));
#1930=VECTOR('',#2317,1000.0);
#1931=CARTESIAN_POINT('',(-2.8,0.150000000000004,0.9));
#1932=CARTESIAN_POINT('',(-2.8,0.150000000000004,0.9));
#1933=VECTOR('',#2318,1000.0);
#1934=CARTESIAN_POINT('',(-2.8,-0.149999999999996,0.9));
#1935=VECTOR('',#2319,1000.0);
#1936=COLOUR_RGB('',0.0,0.0,0.0);
#1937=CARTESIAN_POINT('',(4.0,0.200000000000009,0.9));
#1938=CARTESIAN_POINT('',(4.0,-4.0,0.9));
#1939=CARTESIAN_POINT('',(4.0,-4.0,0.9));
#1940=VECTOR('',#2320,1000.0);
#1941=CARTESIAN_POINT('',(2.1,-4.0,0.9));
#1942=CARTESIAN_POINT('',(2.1,-4.0,0.9));
#1943=VECTOR('',#2321,1000.0);
#1944=CARTESIAN_POINT('',(2.1,0.200000000000006,0.9));
#1945=CARTESIAN_POINT('',(2.1,-4.0,0.9));
#1946=VECTOR('',#2322,1000.0);
#1947=CARTESIAN_POINT('',(2.1,0.200000000000006,0.9));
#1948=VECTOR('',#2323,1000.0);
#1949=CARTESIAN_POINT('',(2.8,0.150000000000004,0.9));
#1950=CARTESIAN_POINT('',(2.8,-0.149999999999996,0.9));
#1951=CARTESIAN_POINT('',(2.8,-0.149999999999996,0.9));
#1952=VECTOR('',#2324,1000.0);
#1953=CARTESIAN_POINT('',(2.2,0.150000000000004,0.9));
#1954=CARTESIAN_POINT('',(2.8,0.150000000000004,0.9));
#1955=VECTOR('',#2325,1000.0);
#1956=CARTESIAN_POINT('',(2.2,-0.149999999999996,0.9));
#1957=CARTESIAN_POINT('',(2.2,-0.149999999999996,0.9));
#1958=VECTOR('',#2326,1000.0);
#1959=CARTESIAN_POINT('',(2.8,-0.149999999999996,0.9));
#1960=VECTOR('',#2327,1000.0);
#1961=COLOUR_RGB('',0.0,0.0,0.0);
#1962=CARTESIAN_POINT('',(2.4,-3.2,7.5));
#1963=CARTESIAN_POINT('',(2.4,-4.0,7.5));
#1964=CARTESIAN_POINT('',(2.4,4.0,7.5));
#1965=VECTOR('',#2328,1000.0);
#1966=CARTESIAN_POINT('',(-2.4,-3.2,7.5));
#1967=CARTESIAN_POINT('',(-3.2,-3.2,7.5));
#1968=VECTOR('',#2329,1000.0);
#1969=CARTESIAN_POINT('',(-2.4,-4.0,7.5));
#1970=CARTESIAN_POINT('',(-2.4,4.0,7.5));
#1971=VECTOR('',#2330,1000.0);
#1972=CARTESIAN_POINT('',(-4.0,-4.0,7.5));
#1973=VECTOR('',#2331,1000.0);
#1974=COLOUR_RGB('',0.0,0.0,0.0);
#1975=CARTESIAN_POINT('',(-3.2,-2.4,7.5));
#1976=CARTESIAN_POINT('',(-4.0,-2.4,7.5));
#1977=CARTESIAN_POINT('',(-4.0,-2.4,7.5));
#1978=VECTOR('',#2332,1000.0);
#1979=CARTESIAN_POINT('',(-3.2,2.4,7.5));
#1980=CARTESIAN_POINT('',(-3.2,3.2,7.5));
#1981=VECTOR('',#2333,1000.0);
#1982=CARTESIAN_POINT('',(-4.0,2.4,7.5));
#1983=CARTESIAN_POINT('',(-4.0,2.4,7.5));
#1984=VECTOR('',#2334,1000.0);
#1985=CARTESIAN_POINT('',(-4.0,4.0,7.5));
#1986=VECTOR('',#2335,1000.0);
#1987=COLOUR_RGB('',0.0,0.0,0.0);
#1988=CARTESIAN_POINT('',(-2.4,3.2,7.5));
#1989=CARTESIAN_POINT('',(-2.4,4.0,7.5));
#1990=CARTESIAN_POINT('',(-2.4,4.0,7.5));
#1991=VECTOR('',#2336,1000.0);
#1992=CARTESIAN_POINT('',(2.4,3.2,7.5));
#1993=CARTESIAN_POINT('',(3.2,3.2,7.5));
#1994=VECTOR('',#2337,1000.0);
#1995=CARTESIAN_POINT('',(2.4,4.0,7.5));
#1996=CARTESIAN_POINT('',(2.4,4.0,7.5));
#1997=VECTOR('',#2338,1000.0);
#1998=CARTESIAN_POINT('',(4.0,4.0,7.5));
#1999=VECTOR('',#2339,1000.0);
#2000=COLOUR_RGB('',0.0,0.0,0.0);
#2001=CARTESIAN_POINT('',(-4.0,0.72,4.0167088405374E-16));
#2002=CARTESIAN_POINT('',(-4.0,0.72,4.0167088405374E-16));
#2003=VECTOR('',#2340,1000.0);
#2004=CARTESIAN_POINT('',(-4.0,-4.0,9.0));
#2005=VECTOR('',#2341,1000.0);
#2006=CARTESIAN_POINT('',(-4.0,-2.4,5.87));
#2007=VECTOR('',#2342,1000.0);
#2008=CARTESIAN_POINT('',(-4.0,2.4,5.87));
#2009=VECTOR('',#2343,1000.0);
#2010=CARTESIAN_POINT('',(-4.0,4.0,0.0));
#2011=CARTESIAN_POINT('',(-4.0,4.0,9.0));
#2012=VECTOR('',#2344,1000.0);
#2013=CARTESIAN_POINT('',(-4.0,4.0,0.0));
#2014=VECTOR('',#2345,1000.0);
#2015=COLOUR_RGB('',0.0,0.0,0.0);
#2016=CARTESIAN_POINT('',(2.1,-4.0,0.0));
#2017=CARTESIAN_POINT('',(2.1,-4.0,0.9));
#2018=VECTOR('',#2346,1000.0);
#2019=CARTESIAN_POINT('',(4.0,-4.0,9.0));
#2020=VECTOR('',#2347,1000.0);
#2021=CARTESIAN_POINT('',(2.4,-4.0,5.87));
#2022=VECTOR('',#2348,1000.0);
#2023=CARTESIAN_POINT('',(-2.4,-4.0,5.87));
#2024=VECTOR('',#2349,1000.0);
#2025=CARTESIAN_POINT('',(-2.1,-4.0,0.0));
#2026=CARTESIAN_POINT('',(-2.1,-4.0,0.9));
#2027=VECTOR('',#2350,1000.0);
#2028=CARTESIAN_POINT('',(-4.0,-4.0,0.0));
#2029=VECTOR('',#2351,1000.0);
#2030=COLOUR_RGB('',0.0,0.0,0.0);
#2031=CARTESIAN_POINT('',(4.0,0.72,0.0));
#2032=CARTESIAN_POINT('',(4.0,0.200000000000009,0.9));
#2033=VECTOR('',#2352,1000.0);
#2034=CARTESIAN_POINT('',(4.0,4.0,0.0));
#2035=CARTESIAN_POINT('',(4.0,4.0,0.0));
#2036=VECTOR('',#2353,1000.0);
#2037=CARTESIAN_POINT('',(4.0,4.0,9.0));
#2038=VECTOR('',#2354,1000.0);
#2039=CARTESIAN_POINT('',(4.0,2.4,7.5));
#2040=CARTESIAN_POINT('',(4.0,2.4,5.87));
#2041=VECTOR('',#2355,1000.0);
#2042=CARTESIAN_POINT('',(4.0,-2.4,7.5));
#2043=CARTESIAN_POINT('',(4.0,-4.0,7.5));
#2044=VECTOR('',#2356,1000.0);
#2045=CARTESIAN_POINT('',(4.0,-2.4,5.87));
#2046=VECTOR('',#2357,1000.0);
#2047=COLOUR_RGB('',0.0,0.0,0.0);
#2048=CARTESIAN_POINT('',(-2.4,4.0,5.87));
#2049=VECTOR('',#2358,1000.0);
#2050=CARTESIAN_POINT('',(2.4,4.0,5.87));
#2051=VECTOR('',#2359,1000.0);
#2052=CARTESIAN_POINT('',(-4.0,4.0,0.0));
#2053=VECTOR('',#2360,1000.0);
#2054=COLOUR_RGB('',0.0,0.0,0.0);
#2055=CARTESIAN_POINT('',(2.1,0.72,0.0));
#2056=CARTESIAN_POINT('',(2.1,0.72,0.0));
#2057=VECTOR('',#2361,1000.0);
#2058=CARTESIAN_POINT('',(2.1,-4.0,0.0));
#2059=VECTOR('',#2362,1000.0);
#2060=CARTESIAN_POINT('',(-2.1,0.72,0.0));
#2061=CARTESIAN_POINT('',(-2.1,0.72,4.0167088405374E-16));
#2062=VECTOR('',#2363,1000.0);
#2063=CARTESIAN_POINT('',(-2.1,0.72,4.0167088405374E-16));
#2064=VECTOR('',#2364,1000.0);
#2065=COLOUR_RGB('',0.0,0.0,0.0);
#2066=CARTESIAN_POINT('',(3.2,-2.4,7.5));
#2067=CARTESIAN_POINT('',(-4.0,-2.4,7.5));
#2068=VECTOR('',#2365,1000.0);
#2069=CARTESIAN_POINT('',(3.2,2.4,7.5));
#2070=CARTESIAN_POINT('',(-4.0,2.4,7.5));
#2071=VECTOR('',#2366,1000.0);
#2072=CARTESIAN_POINT('',(3.2,-3.2,7.5));
#2073=VECTOR('',#2367,1000.0);
#2074=COLOUR_RGB('',0.0,0.0,0.0);
#2075=CARTESIAN_POINT('',(-2.4,3.2,9.0));
#2076=CARTESIAN_POINT('',(-2.4,3.2,5.87));
#2077=VECTOR('',#2368,1000.0);
#2078=CARTESIAN_POINT('',(2.4,3.2,9.0));
#2079=CARTESIAN_POINT('',(3.2,3.2,9.0));
#2080=VECTOR('',#2369,1000.0);
#2081=CARTESIAN_POINT('',(2.4,3.2,5.87));
#2082=VECTOR('',#2370,1000.0);
#2083=COLOUR_RGB('',0.0,0.0,0.0);
#2084=CARTESIAN_POINT('',(3.2,-2.4,9.0));
#2085=CARTESIAN_POINT('',(3.2,-2.4,5.87));
#2086=VECTOR('',#2371,1000.0);
#2087=CARTESIAN_POINT('',(3.2,2.4,9.0));
#2088=CARTESIAN_POINT('',(3.2,2.4,5.87));
#2089=VECTOR('',#2372,1000.0);
#2090=CARTESIAN_POINT('',(3.2,-3.2,9.0));
#2091=VECTOR('',#2373,1000.0);
#2092=COLOUR_RGB('',0.0,0.0,0.0);
#2093=CARTESIAN_POINT('',(2.4,-3.2,9.0));
#2094=CARTESIAN_POINT('',(2.4,-3.2,5.87));
#2095=VECTOR('',#2374,1000.0);
#2096=CARTESIAN_POINT('',(-2.4,-3.2,9.0));
#2097=CARTESIAN_POINT('',(-3.2,-3.2,9.0));
#2098=VECTOR('',#2375,1000.0);
#2099=CARTESIAN_POINT('',(-2.4,-3.2,5.87));
#2100=VECTOR('',#2376,1000.0);
#2101=COLOUR_RGB('',0.0,0.0,0.0);
#2102=CARTESIAN_POINT('',(-3.2,-2.4,9.0));
#2103=CARTESIAN_POINT('',(-3.2,-2.4,5.87));
#2104=VECTOR('',#2377,1000.0);
#2105=CARTESIAN_POINT('',(-3.2,2.4,9.0));
#2106=CARTESIAN_POINT('',(-3.2,3.2,9.0));
#2107=VECTOR('',#2378,1000.0);
#2108=CARTESIAN_POINT('',(-3.2,2.4,5.87));
#2109=VECTOR('',#2379,1000.0);
#2110=COLOUR_RGB('',0.0,0.0,0.0);
#2111=AXIS2_PLACEMENT_3D('',#2380,#2381,#2382);
#2112=AXIS2_PLACEMENT_3D('',#2383,#2384,#2385);
#2113=AXIS2_PLACEMENT_3D('',#2386,#2387,#2388);
#2114=AXIS2_PLACEMENT_3D('',#2389,#2390,#2391);
#2115=AXIS2_PLACEMENT_3D('',#2392,#2393,#2394);
#2116=COLOUR_RGB('',0.0,0.0,0.0);
#2117=CARTESIAN_POINT('',(2.4,3.2,5.87));
#2118=VECTOR('',#2395,1000.0);
#2119=COLOUR_RGB('',0.0,0.0,0.0);
#2120=CARTESIAN_POINT('',(3.2,2.4,5.87));
#2121=VECTOR('',#2396,1000.0);
#2122=COLOUR_RGB('',0.0,0.0,0.0);
#2123=COLOUR_RGB('',0.0,0.0,0.0);
#2124=CARTESIAN_POINT('',(-2.4,3.2,5.87));
#2125=VECTOR('',#2397,1000.0);
#2126=COLOUR_RGB('',0.0,0.0,0.0);
#2127=CARTESIAN_POINT('',(-3.2,2.4,5.87));
#2128=VECTOR('',#2398,1000.0);
#2129=COLOUR_RGB('',0.0,0.0,0.0);
#2130=COLOUR_RGB('',0.0,0.0,0.0);
#2131=CARTESIAN_POINT('',(-3.2,-2.4,5.87));
#2132=VECTOR('',#2399,1000.0);
#2133=COLOUR_RGB('',0.0,0.0,0.0);
#2134=CARTESIAN_POINT('',(-2.4,-3.2,5.87));
#2135=VECTOR('',#2400,1000.0);
#2136=COLOUR_RGB('',0.0,0.0,0.0);
#2137=COLOUR_RGB('',0.0,0.0,0.0);
#2138=CARTESIAN_POINT('',(2.4,-3.2,5.87));
#2139=VECTOR('',#2401,1000.0);
#2140=COLOUR_RGB('',0.0,0.0,0.0);
#2141=CARTESIAN_POINT('',(3.2,-2.4,5.87));
#2142=VECTOR('',#2402,1000.0);
#2143=COLOUR_RGB('',0.0,0.0,0.0);
#2144=COLOUR_RGB('',0.0,0.0,0.0);
#2145=CARTESIAN_POINT('',(-2.1,0.72,4.0167088405374E-16));
#2146=VECTOR('',#2403,1000.0);
#2147=COLOUR_RGB('',0.0,0.0,0.0);
#2148=COLOUR_RGB('',0.0,0.0,0.0);
#2149=AXIS2_PLACEMENT_3D('',#2404,#2405,#2406);
#2150=COLOUR_RGB('',0.0,0.0,0.0);
#2151=COLOUR_RGB('',0.0,0.0,0.0);
#2152=CARTESIAN_POINT('',(2.1,0.200000000000006,0.9));
#2153=VECTOR('',#2407,1000.0);
#2154=COLOUR_RGB('',0.0,0.0,0.0);
#2155=COLOUR_RGB('',0.749019622802734,0.749019622802734,0.749019622802734);
#2156=CARTESIAN_POINT('',(2.8,-0.149999999999996,-4.1));
#2157=CARTESIAN_POINT('',(2.8,-0.149999999999996,-4.1));
#2158=VECTOR('',#2408,1000.0);
#2159=CARTESIAN_POINT('',(2.8,0.150000000000004,-4.1));
#2160=CARTESIAN_POINT('',(2.8,-0.149999999999996,-4.1));
#2161=VECTOR('',#2409,1000.0);
#2162=CARTESIAN_POINT('',(2.8,0.150000000000004,-4.1));
#2163=VECTOR('',#2410,1000.0);
#2164=COLOUR_RGB('',0.749019622802734,0.749019622802734,0.749019622802734);
#2165=CARTESIAN_POINT('',(2.2,-0.149999999999996,-4.1));
#2166=CARTESIAN_POINT('',(2.2,-0.149999999999996,-4.1));
#2167=VECTOR('',#2411,1000.0);
#2168=CARTESIAN_POINT('',(2.8,-0.149999999999996,-4.1));
#2169=VECTOR('',#2412,1000.0);
#2170=COLOUR_RGB('',0.749019622802734,0.749019622802734,0.749019622802734);
#2171=CARTESIAN_POINT('',(2.2,0.150000000000004,-4.1));
#2172=CARTESIAN_POINT('',(2.2,0.150000000000004,-4.1));
#2173=VECTOR('',#2413,1000.0);
#2174=CARTESIAN_POINT('',(2.2,-0.149999999999996,-4.1));
#2175=VECTOR('',#2414,1000.0);
#2176=COLOUR_RGB('',0.749019622802734,0.749019622802734,0.749019622802734);
#2177=CARTESIAN_POINT('',(2.8,0.150000000000004,-4.1));
#2178=VECTOR('',#2415,1000.0);
#2179=COLOUR_RGB('',0.749019622802734,0.749019622802734,0.749019622802734);
#2180=COLOUR_RGB('',0.749019622802734,0.749019622802734,0.749019622802734);
#2181=CARTESIAN_POINT('',(-2.8,-0.149999999999996,-4.1));
#2182=CARTESIAN_POINT('',(-2.8,-0.149999999999996,-4.1));
#2183=VECTOR('',#2416,1000.0);
#2184=CARTESIAN_POINT('',(-2.2,-0.149999999999996,-4.1));
#2185=CARTESIAN_POINT('',(-2.8,-0.149999999999996,-4.1));
#2186=VECTOR('',#2417,1000.0);
#2187=CARTESIAN_POINT('',(-2.2,-0.149999999999996,-4.1));
#2188=VECTOR('',#2418,1000.0);
#2189=COLOUR_RGB('',0.749019622802734,0.749019622802734,0.749019622802734);
#2190=CARTESIAN_POINT('',(-2.8,0.150000000000004,-4.1));
#2191=CARTESIAN_POINT('',(-2.8,0.150000000000004,-4.1));
#2192=VECTOR('',#2419,1000.0);
#2193=CARTESIAN_POINT('',(-2.8,-0.149999999999996,-4.1));
#2194=VECTOR('',#2420,1000.0);
#2195=COLOUR_RGB('',0.749019622802734,0.749019622802734,0.749019622802734);
#2196=CARTESIAN_POINT('',(-2.2,0.150000000000004,-4.1));
#2197=CARTESIAN_POINT('',(-2.2,0.150000000000004,-4.1));
#2198=VECTOR('',#2421,1000.0);
#2199=CARTESIAN_POINT('',(-2.8,0.150000000000004,-4.1));
#2200=VECTOR('',#2422,1000.0);
#2201=COLOUR_RGB('',0.749019622802734,0.749019622802734,0.749019622802734);
#2202=CARTESIAN_POINT('',(-2.2,-0.149999999999996,-4.1));
#2203=VECTOR('',#2423,1000.0);
#2204=COLOUR_RGB('',0.749019622802734,0.749019622802734,0.749019622802734);
#2205=COLOUR_RGB('',0.0,0.0,0.0);
#2206=AXIS2_PLACEMENT_3D('',#2424,#2425,#2426);
#2207=COLOUR_RGB('',0.0,0.0,0.0);
#2208=COLOUR_RGB('',0.0,0.0,0.0);
#2209=AXIS2_PLACEMENT_3D('',#2427,#2428,#2429);
#2210=COLOUR_RGB('',0.0,0.0,0.0);
#2211=COLOUR_RGB('',0.0,0.0,0.0);
#2212=AXIS2_PLACEMENT_3D('',#2430,#2431,#2432);
#2213=COLOUR_RGB('',0.0,0.0,0.0);
#2214=COLOUR_RGB('',0.0,0.0,0.0);
#2215=AXIS2_PLACEMENT_3D('',#2433,#2434,#2435);
#2216=COLOUR_RGB('',0.0,0.0,0.0);
#2217=COLOUR_RGB('',0.0,0.0,0.0);
#2218=CARTESIAN_POINT('',(0.0,0.0,8.0));
#2219=DIRECTION('',(0.0,0.0,1.0));
#2220=DIRECTION('',(1.0,0.0,0.0));
#2221=DIRECTION('',(0.0,0.0,1.0));
#2222=CARTESIAN_POINT('',(0.0,0.0,13.0));
#2223=DIRECTION('',(0.0,0.0,1.0));
#2224=DIRECTION('',(1.0,0.0,0.0));
#2225=DIRECTION('',(0.0,0.0,1.0));
#2226=CARTESIAN_POINT('',(0.0,0.0,8.0));
#2227=DIRECTION('',(0.0,0.0,1.0));
#2228=DIRECTION('',(1.0,0.0,0.0));
#2229=CARTESIAN_POINT('',(0.0,0.0,13.0));
#2230=DIRECTION('',(0.0,0.0,1.0));
#2231=DIRECTION('',(1.0,0.0,0.0));
#2232=CARTESIAN_POINT('',(3.2,-3.2,6.07));
#2233=DIRECTION('',(0.0,0.0,1.0));
#2234=DIRECTION('',(1.0,0.0,0.0));
#2235=DIRECTION('',(0.0,0.0,-1.0));
#2236=CARTESIAN_POINT('',(3.2,-3.2,5.87));
#2237=DIRECTION('',(0.0,0.0,1.0));
#2238=DIRECTION('',(-1.0,0.0,0.0));
#2239=DIRECTION('',(0.0,0.0,-1.0));
#2240=CARTESIAN_POINT('',(-3.2,-3.2,6.07));
#2241=DIRECTION('',(0.0,0.0,1.0));
#2242=DIRECTION('',(1.0,0.0,0.0));
#2243=DIRECTION('',(0.0,0.0,-1.0));
#2244=CARTESIAN_POINT('',(-3.2,-3.2,5.87));
#2245=DIRECTION('',(0.0,0.0,1.0));
#2246=DIRECTION('',(1.0,0.0,0.0));
#2247=DIRECTION('',(0.0,0.0,-1.0));
#2248=CARTESIAN_POINT('',(-3.2,3.2,6.07));
#2249=DIRECTION('',(0.0,0.0,1.0));
#2250=DIRECTION('',(1.0,0.0,0.0));
#2251=DIRECTION('',(0.0,0.0,-1.0));
#2252=CARTESIAN_POINT('',(-3.2,3.2,5.87));
#2253=DIRECTION('',(0.0,0.0,1.0));
#2254=DIRECTION('',(1.0,0.0,0.0));
#2255=DIRECTION('',(0.0,0.0,-1.0));
#2256=CARTESIAN_POINT('',(3.2,3.2,6.07));
#2257=DIRECTION('',(0.0,0.0,1.0));
#2258=DIRECTION('',(1.0,0.0,0.0));
#2259=DIRECTION('',(0.0,0.0,-1.0));
#2260=CARTESIAN_POINT('',(3.2,3.2,5.87));
#2261=DIRECTION('',(0.0,0.0,1.0));
#2262=DIRECTION('',(-1.0,0.0,0.0));
#2263=DIRECTION('',(0.0,0.0,-1.0));
#2264=CARTESIAN_POINT('',(0.0,0.0,7.5));
#2265=DIRECTION('',(0.0,0.0,1.0));
#2266=DIRECTION('',(1.0,0.0,0.0));
#2267=DIRECTION('',(0.0,0.0,1.0));
#2268=CARTESIAN_POINT('',(0.0,0.0,9.0));
#2269=DIRECTION('',(0.0,0.0,1.0));
#2270=DIRECTION('',(1.0,0.0,0.0));
#2271=DIRECTION('',(0.0,0.0,1.0));
#2272=DIRECTION('',(0.0,1.0,0.0));
#2273=DIRECTION('',(-1.0,0.0,0.0));
#2274=CARTESIAN_POINT('',(3.2,-3.2,5.87));
#2275=DIRECTION('',(0.0,0.0,1.0));
#2276=DIRECTION('',(-1.0,0.0,0.0));
#2277=DIRECTION('',(5.42101086242756E-16,-1.0,0.0));
#2278=DIRECTION('',(1.0,0.0,0.0));
#2279=CARTESIAN_POINT('',(3.2,-3.2,5.87));
#2280=DIRECTION('',(0.0,0.0,1.0));
#2281=DIRECTION('',(-1.0,0.0,0.0));
#2282=DIRECTION('',(1.0842021724855E-15,-1.0,0.0));
#2283=DIRECTION('',(1.0,0.0,0.0));
#2284=DIRECTION('',(0.0,1.0,0.0));
#2285=CARTESIAN_POINT('',(-3.2,-3.2,5.87));
#2286=DIRECTION('',(0.0,0.0,1.0));
#2287=DIRECTION('',(1.0,0.0,0.0));
#2288=DIRECTION('',(-1.0,0.0,0.0));
#2289=CARTESIAN_POINT('',(-3.2,-3.2,5.87));
#2290=DIRECTION('',(0.0,0.0,1.0));
#2291=DIRECTION('',(1.0,0.0,0.0));
#2292=DIRECTION('',(0.0,-1.0,0.0));
#2293=DIRECTION('',(1.0,0.0,0.0));
#2294=CARTESIAN_POINT('',(-3.2,3.2,5.87));
#2295=DIRECTION('',(0.0,0.0,1.0));
#2296=DIRECTION('',(1.0,0.0,0.0));
#2297=DIRECTION('',(0.0,1.0,0.0));
#2298=DIRECTION('',(-1.0,0.0,0.0));
#2299=CARTESIAN_POINT('',(-3.2,3.2,5.87));
#2300=DIRECTION('',(0.0,0.0,1.0));
#2301=DIRECTION('',(1.0,0.0,0.0));
#2302=DIRECTION('',(0.0,-1.0,0.0));
#2303=CARTESIAN_POINT('',(3.2,3.2,5.87));
#2304=DIRECTION('',(0.0,0.0,1.0));
#2305=DIRECTION('',(-1.0,0.0,0.0));
#2306=DIRECTION('',(1.0,0.0,0.0));
#2307=DIRECTION('',(-6.50521303491303E-15,1.0,0.0));
#2308=DIRECTION('',(-1.0,0.0,0.0));
#2309=CARTESIAN_POINT('',(3.2,3.2,5.87));
#2310=DIRECTION('',(0.0,0.0,1.0));
#2311=DIRECTION('',(-1.0,0.0,0.0));
#2312=DIRECTION('',(-2.06514699521048E-16,1.0,0.0));
#2313=DIRECTION('',(-1.0,-1.0842021724855E-16,0.0));
#2314=DIRECTION('',(-2.06514699521048E-16,1.0,0.0));
#2315=DIRECTION('',(-1.0,-1.0842021724855E-16,0.0));
#2316=DIRECTION('',(-1.0,0.0,0.0));
#2317=DIRECTION('',(-1.44560289664734E-15,-1.0,0.0));
#2318=DIRECTION('',(1.0,1.80700362080917E-16,0.0));
#2319=DIRECTION('',(-1.44560289664734E-15,1.0,0.0));
#2320=DIRECTION('',(1.85863229568943E-15,-1.0,0.0));
#2321=DIRECTION('',(1.0,1.84314369322536E-15,0.0));
#2322=DIRECTION('',(1.85863229568943E-15,-1.0,0.0));
#2323=DIRECTION('',(1.0,1.84314369322536E-15,0.0));
#2324=DIRECTION('',(-1.44560289664734E-15,-1.0,0.0));
#2325=DIRECTION('',(1.0,-1.80700362080917E-16,0.0));
#2326=DIRECTION('',(-1.44560289664734E-15,1.0,0.0));
#2327=DIRECTION('',(-1.0,0.0,0.0));
#2328=DIRECTION('',(5.42101086242756E-16,-1.0,0.0));
#2329=DIRECTION('',(1.0,0.0,0.0));
#2330=DIRECTION('',(0.0,1.0,0.0));
#2331=DIRECTION('',(1.0,0.0,0.0));
#2332=DIRECTION('',(-1.0,0.0,0.0));
#2333=DIRECTION('',(1.35525271560688E-16,-1.0,0.0));
#2334=DIRECTION('',(1.0,0.0,0.0));
#2335=DIRECTION('',(1.0842021724855E-16,-1.0,0.0));
#2336=DIRECTION('',(0.0,1.0,0.0));
#2337=DIRECTION('',(-1.0,0.0,0.0));
#2338=DIRECTION('',(0.0,-1.0,0.0));
#2339=DIRECTION('',(-1.0,0.0,0.0));
#2340=DIRECTION('',(0.0,0.500277597874628,-0.865865073244551));
#2341=DIRECTION('',(0.0,0.0,-1.0));
#2342=DIRECTION('',(0.0,0.0,1.0));
#2343=DIRECTION('',(0.0,0.0,1.0));
#2344=DIRECTION('',(0.0,0.0,-1.0));
#2345=DIRECTION('',(1.0842021724855E-16,-1.0,0.0));
#2346=DIRECTION('',(0.0,-9.6373526443156E-15,-1.0));
#2347=DIRECTION('',(0.0,0.0,-1.0));
#2348=DIRECTION('',(0.0,0.0,1.0));
#2349=DIRECTION('',(0.0,0.0,1.0));
#2350=DIRECTION('',(0.0,-9.63735264431559E-16,1.0));
#2351=DIRECTION('',(1.0,0.0,0.0));
#2352=DIRECTION('',(1.66892941065078E-15,-0.500277597874628,0.865865073244551));
#2353=DIRECTION('',(-1.84314369322536E-15,1.0,0.0));
#2354=DIRECTION('',(0.0,0.0,-1.0));
#2355=DIRECTION('',(0.0,0.0,1.0));
#2356=DIRECTION('',(-1.84314369322536E-15,1.0,0.0));
#2357=DIRECTION('',(0.0,0.0,1.0));
#2358=DIRECTION('',(0.0,0.0,1.0));
#2359=DIRECTION('',(0.0,0.0,1.0));
#2360=DIRECTION('',(-1.0,0.0,0.0));
#2361=DIRECTION('',(1.0,1.84314369322536E-15,0.0));
#2362=DIRECTION('',(-2.02139388090517E-15,1.0,0.0));
#2363=DIRECTION('',(1.83763080082289E-16,-1.0,-8.50997635707076E-17));
#2364=DIRECTION('',(-1.0,-1.0842021724855E-16,0.0));
#2365=DIRECTION('',(-1.0,0.0,0.0));
#2366=DIRECTION('',(1.0,0.0,0.0));
#2367=DIRECTION('',(-1.89735380184964E-15,1.0,0.0));
#2368=DIRECTION('',(0.0,0.0,1.0));
#2369=DIRECTION('',(-1.0,0.0,0.0));
#2370=DIRECTION('',(0.0,0.0,1.0));
#2371=DIRECTION('',(0.0,0.0,1.0));
#2372=DIRECTION('',(0.0,0.0,1.0));
#2373=DIRECTION('',(-1.89735380184964E-15,1.0,0.0));
#2374=DIRECTION('',(0.0,0.0,1.0));
#2375=DIRECTION('',(1.0,0.0,0.0));
#2376=DIRECTION('',(0.0,0.0,1.0));
#2377=DIRECTION('',(0.0,0.0,1.0));
#2378=DIRECTION('',(1.35525271560688E-16,-1.0,0.0));
#2379=DIRECTION('',(0.0,0.0,1.0));
#2380=CARTESIAN_POINT('',(3.2,-3.2,9.0));
#2381=DIRECTION('',(0.0,0.0,1.0));
#2382=DIRECTION('',(-1.0,0.0,0.0));
#2383=CARTESIAN_POINT('',(3.2,3.2,9.0));
#2384=DIRECTION('',(0.0,0.0,1.0));
#2385=DIRECTION('',(-1.0,0.0,0.0));
#2386=CARTESIAN_POINT('',(-3.2,3.2,9.0));
#2387=DIRECTION('',(0.0,0.0,1.0));
#2388=DIRECTION('',(1.0,0.0,0.0));
#2389=CARTESIAN_POINT('',(-3.2,-3.2,9.0));
#2390=DIRECTION('',(0.0,0.0,1.0));
#2391=DIRECTION('',(1.0,0.0,0.0));
#2392=CARTESIAN_POINT('',(0.0,0.0,9.0));
#2393=DIRECTION('',(0.0,0.0,1.0));
#2394=DIRECTION('',(1.0,0.0,0.0));
#2395=DIRECTION('',(0.0,0.0,1.0));
#2396=DIRECTION('',(0.0,0.0,1.0));
#2397=DIRECTION('',(0.0,0.0,1.0));
#2398=DIRECTION('',(0.0,0.0,1.0));
#2399=DIRECTION('',(0.0,0.0,1.0));
#2400=DIRECTION('',(0.0,0.0,1.0));
#2401=DIRECTION('',(0.0,0.0,1.0));
#2402=DIRECTION('',(0.0,0.0,1.0));
#2403=DIRECTION('',(0.0,0.500277597874628,-0.865865073244551));
#2404=CARTESIAN_POINT('',(0.0,0.0,7.5));
#2405=DIRECTION('',(0.0,0.0,1.0));
#2406=DIRECTION('',(1.0,0.0,0.0));
#2407=DIRECTION('',(1.66892941065078E-15,-0.500277597874628,0.865865073244551));
#2408=DIRECTION('',(0.0,0.0,1.0));
#2409=DIRECTION('',(-1.44560289664734E-15,-1.0,0.0));
#2410=DIRECTION('',(0.0,0.0,1.0));
#2411=DIRECTION('',(0.0,0.0,1.0));
#2412=DIRECTION('',(-1.0,0.0,0.0));
#2413=DIRECTION('',(0.0,0.0,1.0));
#2414=DIRECTION('',(-1.44560289664734E-15,1.0,0.0));
#2415=DIRECTION('',(1.0,-1.80700362080917E-16,0.0));
#2416=DIRECTION('',(0.0,0.0,1.0));
#2417=DIRECTION('',(-1.0,0.0,0.0));
#2418=DIRECTION('',(0.0,0.0,1.0));
#2419=DIRECTION('',(0.0,0.0,1.0));
#2420=DIRECTION('',(-1.44560289664734E-15,1.0,0.0));
#2421=DIRECTION('',(0.0,0.0,1.0));
#2422=DIRECTION('',(1.0,1.80700362080917E-16,0.0));
#2423=DIRECTION('',(-1.44560289664734E-15,-1.0,0.0));
#2424=CARTESIAN_POINT('',(3.2,3.2,6.07));
#2425=DIRECTION('',(0.0,0.0,1.0));
#2426=DIRECTION('',(1.0,0.0,0.0));
#2427=CARTESIAN_POINT('',(-3.2,3.2,6.07));
#2428=DIRECTION('',(0.0,0.0,1.0));
#2429=DIRECTION('',(1.0,0.0,0.0));
#2430=CARTESIAN_POINT('',(-3.2,-3.2,6.07));
#2431=DIRECTION('',(0.0,0.0,1.0));
#2432=DIRECTION('',(1.0,0.0,0.0));
#2433=CARTESIAN_POINT('',(3.2,-3.2,6.07));
#2434=DIRECTION('',(0.0,0.0,1.0));
#2435=DIRECTION('',(1.0,0.0,0.0));
#2436=PRESENTATION_LAYER_ASSIGNMENT('-1','NONE',(#101,#189,#191,#193,#195,#197,#199,#201,#203,#205,#207,#225));
ENDSEC;
END-ISO-10303-21;
