ISO-10303-21;
HEADER;
FILE_DESCRIPTION(('FreeCAD Model'),'2;1');
FILE_NAME('Open CASCADE Shape Model','2025-08-10T22:09:10',(''),(''),
  'Open CASCADE STEP processor 7.8','FreeCAD','Unknown');
FILE_SCHEMA(('AUTOMOTIVE_DESIGN { 1 0 10303 214 1 1 1 1 }'));
ENDSEC;
DATA;
#1 = APPLICATION_PROTOCOL_DEFINITION('international standard',
  'automotive_design',2000,#2);
#2 = APPLICATION_CONTEXT(
  'core data for automotive mechanical design processes');
#3 = SHAPE_DEFINITION_REPRESENTATION(#4,#10);
#4 = PRODUCT_DEFINITION_SHAPE('','',#5);
#5 = PRODUCT_DEFINITION('design','',#6,#9);
#6 = PRODUCT_DEFINITION_FORMATION('','',#7);
#7 = PRODUCT('template','template','',(#8));
#8 = PRODUCT_CONTEXT('',#2,'mechanical');
#9 = PRODUCT_DEFINITION_CONTEXT('part definition',#2,'design');
#10 = SHAPE_REPRESENTATION('',(#11,#15,#19,#23,#27),#31);
#11 = AXIS2_PLACEMENT_3D('',#12,#13,#14);
#12 = CARTESIAN_POINT('',(0.,0.,0.));
#13 = DIRECTION('',(0.,0.,1.));
#14 = DIRECTION('',(1.,0.,-0.));
#15 = AXIS2_PLACEMENT_3D('',#16,#17,#18);
#16 = CARTESIAN_POINT('',(0.,0.,0.));
#17 = DIRECTION('',(0.,0.,1.));
#18 = DIRECTION('',(1.,0.,0.));
#19 = AXIS2_PLACEMENT_3D('',#20,#21,#22);
#20 = CARTESIAN_POINT('',(0.,0.,0.));
#21 = DIRECTION('',(0.,0.,1.));
#22 = DIRECTION('',(1.,0.,0.));
#23 = AXIS2_PLACEMENT_3D('',#24,#25,#26);
#24 = CARTESIAN_POINT('',(-3.75,0.,0.));
#25 = DIRECTION('',(0.,0.,1.));
#26 = DIRECTION('',(1.,0.,0.));
#27 = AXIS2_PLACEMENT_3D('',#28,#29,#30);
#28 = CARTESIAN_POINT('',(3.75,0.,0.));
#29 = DIRECTION('',(0.,0.,1.));
#30 = DIRECTION('',(1.,0.,0.));
#31 = ( GEOMETRIC_REPRESENTATION_CONTEXT(3) 
GLOBAL_UNCERTAINTY_ASSIGNED_CONTEXT((#35)) GLOBAL_UNIT_ASSIGNED_CONTEXT(
(#32,#33,#34)) REPRESENTATION_CONTEXT('Context #1',
  '3D Context with UNIT and UNCERTAINTY') );
#32 = ( LENGTH_UNIT() NAMED_UNIT(*) SI_UNIT(.MILLI.,.METRE.) );
#33 = ( NAMED_UNIT(*) PLANE_ANGLE_UNIT() SI_UNIT($,.RADIAN.) );
#34 = ( NAMED_UNIT(*) SI_UNIT($,.STERADIAN.) SOLID_ANGLE_UNIT() );
#35 = UNCERTAINTY_MEASURE_WITH_UNIT(LENGTH_MEASURE(1.E-07),#32,
  'distance_accuracy_value','confusion accuracy');
#36 = PRODUCT_RELATED_PRODUCT_CATEGORY('part',$,(#7));
#37 = SHAPE_DEFINITION_REPRESENTATION(#38,#44);
#38 = PRODUCT_DEFINITION_SHAPE('','',#39);
#39 = PRODUCT_DEFINITION('design','',#40,#43);
#40 = PRODUCT_DEFINITION_FORMATION('','',#41);
#41 = PRODUCT('Body','Body','',(#42));
#42 = PRODUCT_CONTEXT('',#2,'mechanical');
#43 = PRODUCT_DEFINITION_CONTEXT('part definition',#2,'design');
#44 = ADVANCED_BREP_SHAPE_REPRESENTATION('',(#11,#45),#220);
#45 = MANIFOLD_SOLID_BREP('',#46);
#46 = CLOSED_SHELL('',(#47,#81,#106,#131,#157,#166,#186,#211));
#47 = ADVANCED_FACE('',(#48),#76,.F.);
#48 = FACE_BOUND('',#49,.T.);
#49 = EDGE_LOOP('',(#50,#59,#68,#75));
#50 = ORIENTED_EDGE('',*,*,#51,.T.);
#51 = EDGE_CURVE('',#52,#52,#54,.T.);
#52 = VERTEX_POINT('',#53);
#53 = CARTESIAN_POINT('',(6.75,2.443908960956,0.));
#54 = CIRCLE('',#55,6.75);
#55 = AXIS2_PLACEMENT_3D('',#56,#57,#58);
#56 = CARTESIAN_POINT('',(0.,2.443908960956,0.));
#57 = DIRECTION('',(0.,-1.,0.));
#58 = DIRECTION('',(1.,0.,0.));
#59 = ORIENTED_EDGE('',*,*,#60,.T.);
#60 = EDGE_CURVE('',#52,#61,#63,.T.);
#61 = VERTEX_POINT('',#62);
#62 = CARTESIAN_POINT('',(6.75,1.156091039044,0.));
#63 = CIRCLE('',#64,0.675);
#64 = AXIS2_PLACEMENT_3D('',#65,#66,#67);
#65 = CARTESIAN_POINT('',(6.9525,1.8,0.));
#66 = DIRECTION('',(0.,0.,1.));
#67 = DIRECTION('',(1.,0.,0.));
#68 = ORIENTED_EDGE('',*,*,#69,.F.);
#69 = EDGE_CURVE('',#61,#61,#70,.T.);
#70 = CIRCLE('',#71,6.75);
#71 = AXIS2_PLACEMENT_3D('',#72,#73,#74);
#72 = CARTESIAN_POINT('',(0.,1.156091039044,0.));
#73 = DIRECTION('',(0.,-1.,0.));
#74 = DIRECTION('',(1.,0.,0.));
#75 = ORIENTED_EDGE('',*,*,#60,.F.);
#76 = TOROIDAL_SURFACE('',#77,6.9525,0.675);
#77 = AXIS2_PLACEMENT_3D('',#78,#79,#80);
#78 = CARTESIAN_POINT('',(0.,1.8,0.));
#79 = DIRECTION('',(0.,1.,0.));
#80 = DIRECTION('',(1.,0.,0.));
#81 = ADVANCED_FACE('',(#82),#101,.T.);
#82 = FACE_BOUND('',#83,.F.);
#83 = EDGE_LOOP('',(#84,#85,#93,#100));
#84 = ORIENTED_EDGE('',*,*,#51,.T.);
#85 = ORIENTED_EDGE('',*,*,#86,.T.);
#86 = EDGE_CURVE('',#52,#87,#89,.T.);
#87 = VERTEX_POINT('',#88);
#88 = CARTESIAN_POINT('',(6.75,17.325,0.));
#89 = LINE('',#90,#91);
#90 = CARTESIAN_POINT('',(6.75,2.443908960956,0.));
#91 = VECTOR('',#92,1.);
#92 = DIRECTION('',(0.,1.,0.));
#93 = ORIENTED_EDGE('',*,*,#94,.F.);
#94 = EDGE_CURVE('',#87,#87,#95,.T.);
#95 = CIRCLE('',#96,6.75);
#96 = AXIS2_PLACEMENT_3D('',#97,#98,#99);
#97 = CARTESIAN_POINT('',(0.,17.325,0.));
#98 = DIRECTION('',(0.,-1.,0.));
#99 = DIRECTION('',(1.,0.,0.));
#100 = ORIENTED_EDGE('',*,*,#86,.F.);
#101 = CYLINDRICAL_SURFACE('',#102,6.75);
#102 = AXIS2_PLACEMENT_3D('',#103,#104,#105);
#103 = CARTESIAN_POINT('',(0.,2.443908960956,0.));
#104 = DIRECTION('',(0.,1.,0.));
#105 = DIRECTION('',(1.,0.,0.));
#106 = ADVANCED_FACE('',(#107),#126,.T.);
#107 = FACE_BOUND('',#108,.F.);
#108 = EDGE_LOOP('',(#109,#118,#124,#125));
#109 = ORIENTED_EDGE('',*,*,#110,.T.);
#110 = EDGE_CURVE('',#111,#111,#113,.T.);
#111 = VERTEX_POINT('',#112);
#112 = CARTESIAN_POINT('',(6.75,0.,0.));
#113 = CIRCLE('',#114,6.75);
#114 = AXIS2_PLACEMENT_3D('',#115,#116,#117);
#115 = CARTESIAN_POINT('',(0.,0.,0.));
#116 = DIRECTION('',(0.,-1.,0.));
#117 = DIRECTION('',(1.,0.,0.));
#118 = ORIENTED_EDGE('',*,*,#119,.T.);
#119 = EDGE_CURVE('',#111,#61,#120,.T.);
#120 = LINE('',#121,#122);
#121 = CARTESIAN_POINT('',(6.75,0.,0.));
#122 = VECTOR('',#123,1.);
#123 = DIRECTION('',(0.,1.,0.));
#124 = ORIENTED_EDGE('',*,*,#69,.F.);
#125 = ORIENTED_EDGE('',*,*,#119,.F.);
#126 = CYLINDRICAL_SURFACE('',#127,6.75);
#127 = AXIS2_PLACEMENT_3D('',#128,#129,#130);
#128 = CARTESIAN_POINT('',(0.,0.,0.));
#129 = DIRECTION('',(0.,1.,0.));
#130 = DIRECTION('',(1.,0.,0.));
#131 = ADVANCED_FACE('',(#132),#152,.T.);
#132 = FACE_BOUND('',#133,.F.);
#133 = EDGE_LOOP('',(#134,#135,#144,#151));
#134 = ORIENTED_EDGE('',*,*,#94,.T.);
#135 = ORIENTED_EDGE('',*,*,#136,.T.);
#136 = EDGE_CURVE('',#87,#137,#139,.T.);
#137 = VERTEX_POINT('',#138);
#138 = CARTESIAN_POINT('',(6.075,18.,0.));
#139 = CIRCLE('',#140,0.675);
#140 = AXIS2_PLACEMENT_3D('',#141,#142,#143);
#141 = CARTESIAN_POINT('',(6.075,17.325,0.));
#142 = DIRECTION('',(0.,0.,1.));
#143 = DIRECTION('',(1.,0.,0.));
#144 = ORIENTED_EDGE('',*,*,#145,.F.);
#145 = EDGE_CURVE('',#137,#137,#146,.T.);
#146 = CIRCLE('',#147,6.075);
#147 = AXIS2_PLACEMENT_3D('',#148,#149,#150);
#148 = CARTESIAN_POINT('',(0.,18.,0.));
#149 = DIRECTION('',(0.,-1.,0.));
#150 = DIRECTION('',(1.,0.,0.));
#151 = ORIENTED_EDGE('',*,*,#136,.F.);
#152 = TOROIDAL_SURFACE('',#153,6.075,0.675);
#153 = AXIS2_PLACEMENT_3D('',#154,#155,#156);
#154 = CARTESIAN_POINT('',(0.,17.325,0.));
#155 = DIRECTION('',(0.,1.,0.));
#156 = DIRECTION('',(1.,0.,0.));
#157 = ADVANCED_FACE('',(#158),#161,.T.);
#158 = FACE_BOUND('',#159,.F.);
#159 = EDGE_LOOP('',(#160));
#160 = ORIENTED_EDGE('',*,*,#110,.F.);
#161 = PLANE('',#162);
#162 = AXIS2_PLACEMENT_3D('',#163,#164,#165);
#163 = CARTESIAN_POINT('',(0.,0.,0.));
#164 = DIRECTION('',(-0.,-1.,-0.));
#165 = DIRECTION('',(1.,0.,0.));
#166 = ADVANCED_FACE('',(#167,#170),#181,.F.);
#167 = FACE_BOUND('',#168,.F.);
#168 = EDGE_LOOP('',(#169));
#169 = ORIENTED_EDGE('',*,*,#145,.T.);
#170 = FACE_BOUND('',#171,.F.);
#171 = EDGE_LOOP('',(#172));
#172 = ORIENTED_EDGE('',*,*,#173,.T.);
#173 = EDGE_CURVE('',#174,#174,#176,.T.);
#174 = VERTEX_POINT('',#175);
#175 = CARTESIAN_POINT('',(-4.725,18.,0.));
#176 = CIRCLE('',#177,4.725);
#177 = AXIS2_PLACEMENT_3D('',#178,#179,#180);
#178 = CARTESIAN_POINT('',(0.,18.,0.));
#179 = DIRECTION('',(0.,1.,-2.22044604925E-16));
#180 = DIRECTION('',(-1.,0.,0.));
#181 = PLANE('',#182);
#182 = AXIS2_PLACEMENT_3D('',#183,#184,#185);
#183 = CARTESIAN_POINT('',(0.,18.,0.));
#184 = DIRECTION('',(-0.,-1.,-0.));
#185 = DIRECTION('',(1.,0.,0.));
#186 = ADVANCED_FACE('',(#187),#206,.F.);
#187 = FACE_BOUND('',#188,.F.);
#188 = EDGE_LOOP('',(#189,#197,#204,#205));
#189 = ORIENTED_EDGE('',*,*,#190,.T.);
#190 = EDGE_CURVE('',#174,#191,#193,.T.);
#191 = VERTEX_POINT('',#192);
#192 = CARTESIAN_POINT('',(-4.725,17.95,1.110223024625E-17));
#193 = LINE('',#194,#195);
#194 = CARTESIAN_POINT('',(-4.725,18.,0.));
#195 = VECTOR('',#196,1.);
#196 = DIRECTION('',(0.,-1.,2.22044604925E-16));
#197 = ORIENTED_EDGE('',*,*,#198,.T.);
#198 = EDGE_CURVE('',#191,#191,#199,.T.);
#199 = CIRCLE('',#200,4.725);
#200 = AXIS2_PLACEMENT_3D('',#201,#202,#203);
#201 = CARTESIAN_POINT('',(0.,17.95,1.110223024625E-17));
#202 = DIRECTION('',(0.,1.,-2.22044604925E-16));
#203 = DIRECTION('',(-1.,0.,0.));
#204 = ORIENTED_EDGE('',*,*,#190,.F.);
#205 = ORIENTED_EDGE('',*,*,#173,.F.);
#206 = CYLINDRICAL_SURFACE('',#207,4.725);
#207 = AXIS2_PLACEMENT_3D('',#208,#209,#210);
#208 = CARTESIAN_POINT('',(0.,18.,0.));
#209 = DIRECTION('',(0.,1.,-2.22044604925E-16));
#210 = DIRECTION('',(-1.,0.,0.));
#211 = ADVANCED_FACE('',(#212),#215,.T.);
#212 = FACE_BOUND('',#213,.T.);
#213 = EDGE_LOOP('',(#214));
#214 = ORIENTED_EDGE('',*,*,#198,.T.);
#215 = PLANE('',#216);
#216 = AXIS2_PLACEMENT_3D('',#217,#218,#219);
#217 = CARTESIAN_POINT('',(2.89405319056E-16,17.95,-1.817796406195E-16)
  );
#218 = DIRECTION('',(0.,1.,0.));
#219 = DIRECTION('',(0.,0.,1.));
#220 = ( GEOMETRIC_REPRESENTATION_CONTEXT(3) 
GLOBAL_UNCERTAINTY_ASSIGNED_CONTEXT((#224)) GLOBAL_UNIT_ASSIGNED_CONTEXT
((#221,#222,#223)) REPRESENTATION_CONTEXT('Context #1',
  '3D Context with UNIT and UNCERTAINTY') );
#221 = ( LENGTH_UNIT() NAMED_UNIT(*) SI_UNIT(.MILLI.,.METRE.) );
#222 = ( NAMED_UNIT(*) PLANE_ANGLE_UNIT() SI_UNIT($,.RADIAN.) );
#223 = ( NAMED_UNIT(*) SI_UNIT($,.STERADIAN.) SOLID_ANGLE_UNIT() );
#224 = UNCERTAINTY_MEASURE_WITH_UNIT(LENGTH_MEASURE(1.E-07),#221,
  'distance_accuracy_value','confusion accuracy');
#225 = CONTEXT_DEPENDENT_SHAPE_REPRESENTATION(#226,#228);
#226 = ( REPRESENTATION_RELATIONSHIP('','',#44,#10) 
REPRESENTATION_RELATIONSHIP_WITH_TRANSFORMATION(#227) 
SHAPE_REPRESENTATION_RELATIONSHIP() );
#227 = ITEM_DEFINED_TRANSFORMATION('','',#11,#15);
#228 = PRODUCT_DEFINITION_SHAPE('Placement','Placement of an item',#229
  );
#229 = NEXT_ASSEMBLY_USAGE_OCCURRENCE('285','Body','',#5,#39,$);
#230 = PRODUCT_RELATED_PRODUCT_CATEGORY('part',$,(#41));
#231 = SHAPE_DEFINITION_REPRESENTATION(#232,#238);
#232 = PRODUCT_DEFINITION_SHAPE('','',#233);
#233 = PRODUCT_DEFINITION('design','',#234,#237);
#234 = PRODUCT_DEFINITION_FORMATION('','',#235);
#235 = PRODUCT('Body002','Body002','',(#236));
#236 = PRODUCT_CONTEXT('',#2,'mechanical');
#237 = PRODUCT_DEFINITION_CONTEXT('part definition',#2,'design');
#238 = ADVANCED_BREP_SHAPE_REPRESENTATION('',(#11,#239),#292);
#239 = MANIFOLD_SOLID_BREP('',#240);
#240 = CLOSED_SHELL('',(#241,#274,#283));
#241 = ADVANCED_FACE('',(#242),#269,.T.);
#242 = FACE_BOUND('',#243,.F.);
#243 = EDGE_LOOP('',(#244,#254,#261,#262));
#244 = ORIENTED_EDGE('',*,*,#245,.T.);
#245 = EDGE_CURVE('',#246,#248,#250,.T.);
#246 = VERTEX_POINT('',#247);
#247 = CARTESIAN_POINT('',(-4.725,17.95,1.110223024625E-17));
#248 = VERTEX_POINT('',#249);
#249 = CARTESIAN_POINT('',(-4.725,18.,1.110223024625E-17));
#250 = LINE('',#251,#252);
#251 = CARTESIAN_POINT('',(-4.725,17.95,1.110223024625E-17));
#252 = VECTOR('',#253,1.);
#253 = DIRECTION('',(0.,1.,0.));
#254 = ORIENTED_EDGE('',*,*,#255,.T.);
#255 = EDGE_CURVE('',#248,#248,#256,.T.);
#256 = CIRCLE('',#257,4.725);
#257 = AXIS2_PLACEMENT_3D('',#258,#259,#260);
#258 = CARTESIAN_POINT('',(0.,18.,1.110223024625E-17));
#259 = DIRECTION('',(0.,1.,-2.22044604925E-16));
#260 = DIRECTION('',(-1.,0.,0.));
#261 = ORIENTED_EDGE('',*,*,#245,.F.);
#262 = ORIENTED_EDGE('',*,*,#263,.F.);
#263 = EDGE_CURVE('',#246,#246,#264,.T.);
#264 = CIRCLE('',#265,4.725);
#265 = AXIS2_PLACEMENT_3D('',#266,#267,#268);
#266 = CARTESIAN_POINT('',(0.,17.95,1.110223024625E-17));
#267 = DIRECTION('',(0.,1.,-2.22044604925E-16));
#268 = DIRECTION('',(-1.,0.,0.));
#269 = CYLINDRICAL_SURFACE('',#270,4.725);
#270 = AXIS2_PLACEMENT_3D('',#271,#272,#273);
#271 = CARTESIAN_POINT('',(0.,17.95,1.110223024625E-17));
#272 = DIRECTION('',(0.,-1.,2.22044604925E-16));
#273 = DIRECTION('',(-1.,0.,0.));
#274 = ADVANCED_FACE('',(#275),#278,.F.);
#275 = FACE_BOUND('',#276,.F.);
#276 = EDGE_LOOP('',(#277));
#277 = ORIENTED_EDGE('',*,*,#263,.T.);
#278 = PLANE('',#279);
#279 = AXIS2_PLACEMENT_3D('',#280,#281,#282);
#280 = CARTESIAN_POINT('',(2.89405319056E-16,17.95,-1.817796406195E-16)
  );
#281 = DIRECTION('',(0.,1.,0.));
#282 = DIRECTION('',(0.,0.,1.));
#283 = ADVANCED_FACE('',(#284),#287,.T.);
#284 = FACE_BOUND('',#285,.T.);
#285 = EDGE_LOOP('',(#286));
#286 = ORIENTED_EDGE('',*,*,#255,.T.);
#287 = PLANE('',#288);
#288 = AXIS2_PLACEMENT_3D('',#289,#290,#291);
#289 = CARTESIAN_POINT('',(2.89405319056E-16,18.,-1.817796406195E-16));
#290 = DIRECTION('',(0.,1.,0.));
#291 = DIRECTION('',(0.,0.,1.));
#292 = ( GEOMETRIC_REPRESENTATION_CONTEXT(3) 
GLOBAL_UNCERTAINTY_ASSIGNED_CONTEXT((#296)) GLOBAL_UNIT_ASSIGNED_CONTEXT
((#293,#294,#295)) REPRESENTATION_CONTEXT('Context #1',
  '3D Context with UNIT and UNCERTAINTY') );
#293 = ( LENGTH_UNIT() NAMED_UNIT(*) SI_UNIT(.MILLI.,.METRE.) );
#294 = ( NAMED_UNIT(*) PLANE_ANGLE_UNIT() SI_UNIT($,.RADIAN.) );
#295 = ( NAMED_UNIT(*) SI_UNIT($,.STERADIAN.) SOLID_ANGLE_UNIT() );
#296 = UNCERTAINTY_MEASURE_WITH_UNIT(LENGTH_MEASURE(1.E-07),#293,
  'distance_accuracy_value','confusion accuracy');
#297 = CONTEXT_DEPENDENT_SHAPE_REPRESENTATION(#298,#300);
#298 = ( REPRESENTATION_RELATIONSHIP('','',#238,#10) 
REPRESENTATION_RELATIONSHIP_WITH_TRANSFORMATION(#299) 
SHAPE_REPRESENTATION_RELATIONSHIP() );
#299 = ITEM_DEFINED_TRANSFORMATION('','',#11,#19);
#300 = PRODUCT_DEFINITION_SHAPE('Placement','Placement of an item',#301
  );
#301 = NEXT_ASSEMBLY_USAGE_OCCURRENCE('286','Body002','',#5,#233,$);
#302 = PRODUCT_RELATED_PRODUCT_CATEGORY('part',$,(#235));
#303 = SHAPE_DEFINITION_REPRESENTATION(#304,#310);
#304 = PRODUCT_DEFINITION_SHAPE('','',#305);
#305 = PRODUCT_DEFINITION('design','',#306,#309);
#306 = PRODUCT_DEFINITION_FORMATION('','',#307);
#307 = PRODUCT('Pin1','Pin1','',(#308));
#308 = PRODUCT_CONTEXT('',#2,'mechanical');
#309 = PRODUCT_DEFINITION_CONTEXT('part definition',#2,'design');
#310 = ADVANCED_BREP_SHAPE_REPRESENTATION('',(#11,#311),#364);
#311 = MANIFOLD_SOLID_BREP('',#312);
#312 = CLOSED_SHELL('',(#313,#346,#355));
#313 = ADVANCED_FACE('',(#314),#341,.T.);
#314 = FACE_BOUND('',#315,.F.);
#315 = EDGE_LOOP('',(#316,#326,#333,#334));
#316 = ORIENTED_EDGE('',*,*,#317,.T.);
#317 = EDGE_CURVE('',#318,#320,#322,.T.);
#318 = VERTEX_POINT('',#319);
#319 = CARTESIAN_POINT('',(0.375,0.,0.));
#320 = VERTEX_POINT('',#321);
#321 = CARTESIAN_POINT('',(0.375,-4.,8.881784197001E-16));
#322 = LINE('',#323,#324);
#323 = CARTESIAN_POINT('',(0.375,0.,0.));
#324 = VECTOR('',#325,1.);
#325 = DIRECTION('',(0.,-1.,2.22044604925E-16));
#326 = ORIENTED_EDGE('',*,*,#327,.T.);
#327 = EDGE_CURVE('',#320,#320,#328,.T.);
#328 = CIRCLE('',#329,0.375);
#329 = AXIS2_PLACEMENT_3D('',#330,#331,#332);
#330 = CARTESIAN_POINT('',(0.,-4.,8.881784197001E-16));
#331 = DIRECTION('',(0.,-1.,2.22044604925E-16));
#332 = DIRECTION('',(1.,0.,0.));
#333 = ORIENTED_EDGE('',*,*,#317,.F.);
#334 = ORIENTED_EDGE('',*,*,#335,.F.);
#335 = EDGE_CURVE('',#318,#318,#336,.T.);
#336 = CIRCLE('',#337,0.375);
#337 = AXIS2_PLACEMENT_3D('',#338,#339,#340);
#338 = CARTESIAN_POINT('',(0.,0.,0.));
#339 = DIRECTION('',(0.,-1.,2.22044604925E-16));
#340 = DIRECTION('',(1.,0.,0.));
#341 = CYLINDRICAL_SURFACE('',#342,0.375);
#342 = AXIS2_PLACEMENT_3D('',#343,#344,#345);
#343 = CARTESIAN_POINT('',(0.,0.,0.));
#344 = DIRECTION('',(0.,1.,-2.22044604925E-16));
#345 = DIRECTION('',(1.,0.,0.));
#346 = ADVANCED_FACE('',(#347),#350,.T.);
#347 = FACE_BOUND('',#348,.F.);
#348 = EDGE_LOOP('',(#349));
#349 = ORIENTED_EDGE('',*,*,#335,.T.);
#350 = PLANE('',#351);
#351 = AXIS2_PLACEMENT_3D('',#352,#353,#354);
#352 = CARTESIAN_POINT('',(-2.848833609457E-17,-2.362370170719E-34,
    -1.063916942056E-18));
#353 = DIRECTION('',(0.,1.,0.));
#354 = DIRECTION('',(0.,0.,1.));
#355 = ADVANCED_FACE('',(#356),#359,.F.);
#356 = FACE_BOUND('',#357,.T.);
#357 = EDGE_LOOP('',(#358));
#358 = ORIENTED_EDGE('',*,*,#327,.T.);
#359 = PLANE('',#360);
#360 = AXIS2_PLACEMENT_3D('',#361,#362,#363);
#361 = CARTESIAN_POINT('',(-2.848833609457E-17,-4.,8.881784197001E-16));
#362 = DIRECTION('',(0.,1.,0.));
#363 = DIRECTION('',(0.,0.,1.));
#364 = ( GEOMETRIC_REPRESENTATION_CONTEXT(3) 
GLOBAL_UNCERTAINTY_ASSIGNED_CONTEXT((#368)) GLOBAL_UNIT_ASSIGNED_CONTEXT
((#365,#366,#367)) REPRESENTATION_CONTEXT('Context #1',
  '3D Context with UNIT and UNCERTAINTY') );
#365 = ( LENGTH_UNIT() NAMED_UNIT(*) SI_UNIT(.MILLI.,.METRE.) );
#366 = ( NAMED_UNIT(*) PLANE_ANGLE_UNIT() SI_UNIT($,.RADIAN.) );
#367 = ( NAMED_UNIT(*) SI_UNIT($,.STERADIAN.) SOLID_ANGLE_UNIT() );
#368 = UNCERTAINTY_MEASURE_WITH_UNIT(LENGTH_MEASURE(1.E-07),#365,
  'distance_accuracy_value','confusion accuracy');
#369 = CONTEXT_DEPENDENT_SHAPE_REPRESENTATION(#370,#372);
#370 = ( REPRESENTATION_RELATIONSHIP('','',#310,#10) 
REPRESENTATION_RELATIONSHIP_WITH_TRANSFORMATION(#371) 
SHAPE_REPRESENTATION_RELATIONSHIP() );
#371 = ITEM_DEFINED_TRANSFORMATION('','',#11,#23);
#372 = PRODUCT_DEFINITION_SHAPE('Placement','Placement of an item',#373
  );
#373 = NEXT_ASSEMBLY_USAGE_OCCURRENCE('287','Pin1','',#5,#305,$);
#374 = PRODUCT_RELATED_PRODUCT_CATEGORY('part',$,(#307));
#375 = CONTEXT_DEPENDENT_SHAPE_REPRESENTATION(#376,#378);
#376 = ( REPRESENTATION_RELATIONSHIP('','',#310,#10) 
REPRESENTATION_RELATIONSHIP_WITH_TRANSFORMATION(#377) 
SHAPE_REPRESENTATION_RELATIONSHIP() );
#377 = ITEM_DEFINED_TRANSFORMATION('','',#11,#27);
#378 = PRODUCT_DEFINITION_SHAPE('Placement','Placement of an item',#379
  );
#379 = NEXT_ASSEMBLY_USAGE_OCCURRENCE('288','Pin2','',#5,#305,$);
#380 = SHAPE_DEFINITION_REPRESENTATION(#378,#381);
#381 = SHAPE_REPRESENTATION('',(#27),#364);
#382 = SHAPE_DEFINITION_REPRESENTATION(#378,#383);
#383 = SHAPE_REPRESENTATION('',(#27),#364);
#384 = MECHANICAL_DESIGN_GEOMETRIC_PRESENTATION_REPRESENTATION('',(#385,
    #396,#405),#364);
#385 = STYLED_ITEM('color',(#386),#311);
#386 = PRESENTATION_STYLE_ASSIGNMENT((#387,#393));
#387 = SURFACE_STYLE_USAGE(.BOTH.,#388);
#388 = SURFACE_SIDE_STYLE('',(#389));
#389 = SURFACE_STYLE_FILL_AREA(#390);
#390 = FILL_AREA_STYLE('',(#391));
#391 = FILL_AREA_STYLE_COLOUR('',#392);
#392 = COLOUR_RGB('',0.447059003357,0.474510015008,0.501960993452);
#393 = CURVE_STYLE('',#394,POSITIVE_LENGTH_MEASURE(0.1),#395);
#394 = DRAUGHTING_PRE_DEFINED_CURVE_FONT('continuous');
#395 = COLOUR_RGB('',9.803921802644E-02,9.803921802644E-02,
  9.803921802644E-02);
#396 = OVER_RIDING_STYLED_ITEM('overriding color',(#397),#311,#385);
#397 = PRESENTATION_STYLE_BY_CONTEXT((#398,#403),#381);
#398 = SURFACE_STYLE_USAGE(.BOTH.,#399);
#399 = SURFACE_SIDE_STYLE('',(#400));
#400 = SURFACE_STYLE_FILL_AREA(#401);
#401 = FILL_AREA_STYLE('',(#402));
#402 = FILL_AREA_STYLE_COLOUR('',#392);
#403 = CURVE_STYLE('',#404,POSITIVE_LENGTH_MEASURE(0.1),#395);
#404 = DRAUGHTING_PRE_DEFINED_CURVE_FONT('continuous');
#405 = OVER_RIDING_STYLED_ITEM('overriding color',(#406),#311,#385);
#406 = PRESENTATION_STYLE_BY_CONTEXT((#407,#413),#383);
#407 = SURFACE_STYLE_USAGE(.BOTH.,#408);
#408 = SURFACE_SIDE_STYLE('',(#409));
#409 = SURFACE_STYLE_FILL_AREA(#410);
#410 = FILL_AREA_STYLE('',(#411));
#411 = FILL_AREA_STYLE_COLOUR('',#412);
#412 = COLOUR_RGB('',0.447059003357,0.474510015008,0.501960993452);
#413 = CURVE_STYLE('',#414,POSITIVE_LENGTH_MEASURE(0.1),#415);
#414 = DRAUGHTING_PRE_DEFINED_CURVE_FONT('continuous');
#415 = COLOUR_RGB('',9.803921802644E-02,9.803921802644E-02,
  9.803921802644E-02);
#416 = MECHANICAL_DESIGN_GEOMETRIC_PRESENTATION_REPRESENTATION('',(#417)
  ,#292);
#417 = STYLED_ITEM('color',(#418),#239);
#418 = PRESENTATION_STYLE_ASSIGNMENT((#419,#425));
#419 = SURFACE_STYLE_USAGE(.BOTH.,#420);
#420 = SURFACE_SIDE_STYLE('',(#421));
#421 = SURFACE_STYLE_FILL_AREA(#422);
#422 = FILL_AREA_STYLE('',(#423));
#423 = FILL_AREA_STYLE_COLOUR('',#424);
#424 = COLOUR_RGB('',0.796078452645,0.823529417451,0.937254901616);
#425 = CURVE_STYLE('',#426,POSITIVE_LENGTH_MEASURE(0.1),#395);
#426 = DRAUGHTING_PRE_DEFINED_CURVE_FONT('continuous');
#427 = MECHANICAL_DESIGN_GEOMETRIC_PRESENTATION_REPRESENTATION('',(#428)
  ,#220);
#428 = STYLED_ITEM('color',(#429),#45);
#429 = PRESENTATION_STYLE_ASSIGNMENT((#430,#436));
#430 = SURFACE_STYLE_USAGE(.BOTH.,#431);
#431 = SURFACE_SIDE_STYLE('',(#432));
#432 = SURFACE_STYLE_FILL_AREA(#433);
#433 = FILL_AREA_STYLE('',(#434));
#434 = FILL_AREA_STYLE_COLOUR('',#435);
#435 = COLOUR_RGB('',0.250980406631,0.250980406631,0.250980406631);
#436 = CURVE_STYLE('',#437,POSITIVE_LENGTH_MEASURE(0.1),#395);
#437 = DRAUGHTING_PRE_DEFINED_CURVE_FONT('continuous');
ENDSEC;
END-ISO-10303-21;
